<?xml version="1.0" encoding="UTF-8" standalone="no"?>
<!-- Created with Inkscape (http://www.inkscape.org/) -->

<svg
   width="20.188953"
   height="24.429005"
   viewBox="0 0 20.188953 24.429005"
   version="1.1"
   id="svg1"
   inkscape:version="1.3 (0e150ed6c4, 2023-07-21)"
   sodipodi:docname="energy_up.svg"
   xml:space="preserve"
   xmlns:inkscape="http://www.inkscape.org/namespaces/inkscape"
   xmlns:sodipodi="http://sodipodi.sourceforge.net/DTD/sodipodi-0.dtd"
   xmlns="http://www.w3.org/2000/svg"
   xmlns:svg="http://www.w3.org/2000/svg"><sodipodi:namedview
     id="namedview1"
     pagecolor="#505050"
     bordercolor="#eeeeee"
     borderopacity="1"
     inkscape:showpageshadow="false"
     inkscape:pageopacity="0"
     inkscape:pagecheckerboard="false"
     inkscape:deskcolor="#505050"
     inkscape:document-units="px"
     labelstyle="default"
     inkscape:zoom="6.4322346"
     inkscape:cx="-8.3952162"
     inkscape:cy="34.669133"
     inkscape:window-width="1920"
     inkscape:window-height="1017"
     inkscape:window-x="-8"
     inkscape:window-y="-8"
     inkscape:window-maximized="1"
     inkscape:current-layer="layer1" /><defs
     id="defs1"><inkscape:perspective
       sodipodi:type="inkscape:persp3d"
       inkscape:vp_x="195.60993 : -250.00108 : 1"
       inkscape:vp_y="0 : 1000 : 0"
       inkscape:vp_z="738.07961 : -336.57216 : 1"
       inkscape:persp3d-origin="399.99999 : -375.57101 : 1"
       id="perspective1" /></defs><g
     inkscape:label="Layer 1"
     inkscape:groupmode="layer"
     id="layer1"
     transform="translate(-816.44641,-1768.0061)"><path
       style="fill:#f3ff62;fill-opacity:1;stroke:#c8ffbe;stroke-width:2.637;stroke-linejoin:round;stroke-dasharray:none;stroke-opacity:1;paint-order:stroke fill markers"
       d="m 829.84715,1769.3243 -7.89,10.6305 4.7438,3.6723 -0.1938,7.4897 8.8098,-9.404 -5.7602,-2.821 z"
       id="path4-3-3-9"
       sodipodi:nodetypes="ccccccc" /><path
       id="rect65-3-1"
       style="fill:#469137;fill-opacity:1;stroke:none;stroke-width:4;stroke-linecap:round;stroke-opacity:1;paint-order:stroke fill markers"
       d="m 820.74801,1769.881 c -0.43484,0 -0.78308,0.3503 -0.78308,0.7852 v 2.7311 h -2.73329 c -0.43484,0 -0.78523,0.3504 -0.78523,0.7853 v 2.4715 c 0,0.4348 0.35039,0.7852 0.78523,0.7852 h 2.73329 v 2.7312 c 0,0.4348 0.34824,0.7852 0.78308,0.7852 h 2.47154 c 0.43485,0 0.78524,-0.3504 0.78524,-0.7852 v -2.7312 h 2.73328 c 0.43484,0 0.78309,-0.3504 0.78309,-0.7852 v -2.4715 c 0,-0.4349 -0.34825,-0.7853 -0.78309,-0.7853 h -2.73328 v -2.7311 c 0,-0.4349 -0.35039,-0.7852 -0.78524,-0.7852 z" /></g></svg>
