<?xml version="1.0" encoding="UTF-8" standalone="no"?>
<!-- Created with Inkscape (http://www.inkscape.org/) -->

<svg
   width="24.201799"
   height="23.302498"
   viewBox="0 0 24.2018 23.302498"
   version="1.1"
   id="svg1"
   inkscape:version="1.3 (0e150ed6c4, 2023-07-21)"
   sodipodi:docname="money_up.svg"
   xml:space="preserve"
   xmlns:inkscape="http://www.inkscape.org/namespaces/inkscape"
   xmlns:sodipodi="http://sodipodi.sourceforge.net/DTD/sodipodi-0.dtd"
   xmlns="http://www.w3.org/2000/svg"
   xmlns:svg="http://www.w3.org/2000/svg"><sodipodi:namedview
     id="namedview1"
     pagecolor="#505050"
     bordercolor="#eeeeee"
     borderopacity="1"
     inkscape:showpageshadow="false"
     inkscape:pageopacity="0"
     inkscape:pagecheckerboard="false"
     inkscape:deskcolor="#505050"
     inkscape:document-units="px"
     labelstyle="default"
     inkscape:zoom="18.193107"
     inkscape:cx="12.422287"
     inkscape:cy="11.707731"
     inkscape:window-width="1920"
     inkscape:window-height="1017"
     inkscape:window-x="-8"
     inkscape:window-y="-8"
     inkscape:window-maximized="1"
     inkscape:current-layer="layer1" /><defs
     id="defs1"><inkscape:perspective
       sodipodi:type="inkscape:persp3d"
       inkscape:vp_x="195.60993 : -251.12758 : 1"
       inkscape:vp_y="0 : 1000 : 0"
       inkscape:vp_z="738.07964 : -337.69866 : 1"
       inkscape:persp3d-origin="400 : -376.69751 : 1"
       id="perspective1" /></defs><g
     inkscape:label="Layer 1"
     inkscape:groupmode="layer"
     id="layer1"
     transform="translate(-779.63925,-1784.2845)"><g
       id="g36-2-1"
       transform="matrix(1.2185081,0,0,1.208713,-109.68754,1025.5297)"
       style="stroke-width:1.68644"><g
         id="g35-2-1"
         transform="translate(-3.5355339,-21.897874)"
         style="stroke-width:1.68644"><path
           style="fill:#c7fc76;fill-opacity:1;stroke:none;stroke-width:3.37286;stroke-opacity:1;paint-order:stroke fill markers"
           d="m 734,658.77747 5.90418,4.51753 12.72659,-5.96068 L 745.39915,653 Z"
           id="path17-63-9"
           sodipodi:nodetypes="ccccc" /><path
           style="fill:#a9d764;fill-opacity:1;stroke:none;stroke-width:3.37286;stroke-opacity:1;paint-order:stroke fill markers"
           d="m 734,658.77747 v 4.97778 l 5.77532,4.43541 0.12886,-4.89566 z"
           id="path18-9-0" /><path
           style="fill:#92c254;fill-opacity:1;stroke:none;stroke-width:3.37286;stroke-opacity:1;paint-order:stroke fill markers"
           d="m 734,662.42185 v 1.3334 l 5.77532,4.43541 0.12886,-1.25128 z"
           id="path18-7-4-2"
           sodipodi:nodetypes="ccccc" /><path
           style="fill:#92c254;fill-opacity:1;stroke:none;stroke-width:3.37286;stroke-opacity:1;paint-order:stroke fill markers"
           d="m 734,659.93296 v 1.3334 l 5.83975,4.47647 0.0644,-1.29234 z"
           id="path18-7-7-5-0"
           sodipodi:nodetypes="ccccc" /><path
           style="fill:#78a55d;fill-opacity:1;stroke:none;stroke-width:3.37286;stroke-opacity:1;paint-order:stroke fill markers"
           d="m 739.77532,668.19066 12.85545,-6.21523 v -4.64111 l -12.72659,5.96068 z"
           id="path25-7-4" /><path
           style="fill:#648a4c;fill-opacity:1;stroke:none;stroke-width:3.37286;stroke-opacity:1;paint-order:stroke fill markers"
           d="m 739.77532,668.19066 12.85545,-6.21523 v -1.10973 l -12.82067,6.00374 z"
           id="path25-1-1-1"
           sodipodi:nodetypes="ccccc" /><path
           style="fill:#648a4c;fill-opacity:1;stroke:none;stroke-width:3.37286;stroke-opacity:1;paint-order:stroke fill markers"
           d="m 739.83975,665.74283 12.79102,-6.14329 v -1.10973 l -12.72659,5.96068 z"
           id="path25-1-9-3-1"
           sodipodi:nodetypes="ccccc" /><ellipse
           style="fill:#abdd6d;fill-opacity:1;stroke:none;stroke-width:4.38088;stroke-opacity:1;paint-order:stroke fill markers"
           id="path35-1-0"
           cx="533.52515"
           cy="898.88849"
           rx="3.2432792"
           ry="1.9226651"
           transform="matrix(0.92311896,-0.38451447,0.27861273,0.96040353,0,0)" /></g></g><path
       id="path17-63-7-5"
       style="fill:none;fill-opacity:1;stroke:#c8ffbe;stroke-width:1.5;stroke-dasharray:none;stroke-opacity:1;paint-order:stroke fill markers"
       d="m 794.27917,1788.3513 -13.88992,6.9831 v 1.3969 1.6114 1.3969 1.6114 l 7.0374,5.3613 15.6644,-7.5126 v -1.3415 -1.5295 -1.3415 -1.3968 z" /><path
       id="rect65-3-1-2"
       style="fill:#469137;fill-opacity:1;stroke:none;stroke-width:4;stroke-linecap:round;stroke-opacity:1;paint-order:stroke fill markers"
       d="m 784.07743,1784.2845 c -0.43484,0 -0.78308,0.3504 -0.78308,0.7852 v 2.7312 h -2.73329 c -0.43484,0 -0.78523,0.3503 -0.78523,0.7852 v 2.4715 c 0,0.4349 0.35039,0.7853 0.78523,0.7853 h 2.73329 v 2.7311 c 0,0.4348 0.34824,0.7852 0.78308,0.7852 h 2.47154 c 0.43485,0 0.78524,-0.3504 0.78524,-0.7852 v -2.7311 h 2.73328 c 0.43484,0 0.78309,-0.3504 0.78309,-0.7853 v -2.4715 c 0,-0.4349 -0.34825,-0.7852 -0.78309,-0.7852 h -2.73328 v -2.7312 c 0,-0.4348 -0.35039,-0.7852 -0.78524,-0.7852 z" /></g></svg>
