<?xml version="1.0" encoding="UTF-8" standalone="no"?>
<!-- Created with Inkscape (http://www.inkscape.org/) -->

<svg
   width="29.450661"
   height="23.855553"
   viewBox="0 0 29.450661 23.855553"
   version="1.1"
   id="svg1"
   inkscape:version="1.3 (0e150ed6c4, 2023-07-21)"
   sodipodi:docname="pollution_down.svg"
   xml:space="preserve"
   xmlns:inkscape="http://www.inkscape.org/namespaces/inkscape"
   xmlns:sodipodi="http://sodipodi.sourceforge.net/DTD/sodipodi-0.dtd"
   xmlns="http://www.w3.org/2000/svg"
   xmlns:svg="http://www.w3.org/2000/svg"><sodipodi:namedview
     id="namedview1"
     pagecolor="#505050"
     bordercolor="#eeeeee"
     borderopacity="1"
     inkscape:showpageshadow="false"
     inkscape:pageopacity="0"
     inkscape:pagecheckerboard="false"
     inkscape:deskcolor="#505050"
     inkscape:document-units="px"
     labelstyle="default"
     inkscape:zoom="6.4322346"
     inkscape:cx="9.017084"
     inkscape:cy="-14.613895"
     inkscape:window-width="1920"
     inkscape:window-height="1017"
     inkscape:window-x="-8"
     inkscape:window-y="-8"
     inkscape:window-maximized="1"
     inkscape:current-layer="layer1" /><defs
     id="defs1"><inkscape:perspective
       sodipodi:type="inkscape:persp3d"
       inkscape:vp_x="195.60993 : -250.57452 : 1"
       inkscape:vp_y="0 : 1000 : 0"
       inkscape:vp_z="738.07963 : -337.1456 : 1"
       inkscape:persp3d-origin="400 : -376.14446 : 1"
       id="perspective1" /></defs><g
     inkscape:label="Layer 1"
     inkscape:groupmode="layer"
     id="layer1"
     transform="translate(-779.27319,-1781.5761)"><g
       id="g37-7-5-9"
       transform="matrix(0.94829681,0,0,0.94829681,-189.70518,1260.295)"><path
         id="path5-0-6-1-6"
         style="fill:#c28d46;fill-opacity:1;stroke:#c8ffbe;stroke-width:3.34507;stroke-linejoin:round;stroke-dasharray:none;stroke-opacity:1;paint-order:stroke fill markers"
         d="m 1038.5034,551.375 a 8.1434868,8.0268301 0 0 0 -7.9341,6.31177 5.439036,5.3611216 0 0 0 -4.0942,5.18418 5.439036,5.3611216 0 0 0 4.5041,5.27209 6.7965816,6.6992197 0 0 0 6.5723,5.0431 6.7965816,6.6992197 0 0 0 6.1975,-3.95626 6.0037011,5.9176976 0 0 0 1.4404,0.18568 6.0037011,5.9176976 0 0 0 6.0036,-5.91776 6.0037011,5.9176976 0 0 0 -4.7296,-5.78123 8.1434868,8.0268301 0 0 0 -7.96,-6.34157 z" /><g
         id="text6-55-6-9-3"
         transform="scale(0.91016266,1.0987047)"><path
           style="color:#000000;-inkscape-font-specification:'Franklin Gothic Medium, ';fill:#745732;stroke-linejoin:round;-inkscape-stroke:none;paint-order:stroke fill markers"
           d="m 1134.6621,508.23828 c -1.0264,0 -1.887,0.38824 -2.5098,1.14258 -0.6192,0.75015 -0.9257,1.70444 -0.9257,2.82422 0,1.0841 0.2783,2.02391 0.8398,2.79101 a 0.24296429,0.24296429 0 0 0 0,0.002 c 0.5761,0.77495 1.4293,1.17382 2.4746,1.17382 0.7747,0 1.4599,-0.23559 2.0176,-0.70117 0.5677,-0.4739 0.9384,-1.19371 1.125,-2.12695 a 0.24296429,0.24296429 0 0 0 -0.2148,-0.28906 l -1.3868,-0.14258 a 0.24296429,0.24296429 0 0 0 -0.2597,0.18164 c -0.1084,0.4268 -0.27,0.72491 -0.461,0.91016 -0.191,0.18525 -0.411,0.27343 -0.7129,0.27343 -0.3939,0 -0.658,-0.14217 -0.8808,-0.47851 -0.2172,-0.33456 -0.3418,-0.84441 -0.3418,-1.53711 0,-0.6504 0.1159,-1.18813 0.3398,-1.62305 0.2167,-0.41706 0.5061,-0.58984 0.9824,-0.58984 0.3274,0 0.5474,0.0875 0.7168,0.25976 0.1695,0.17223 0.2948,0.45096 0.3516,0.86133 a 0.24296429,0.24296429 0 0 0 0.2734,0.20703 l 1.3887,-0.1914 a 0.24296429,0.24296429 0 0 0 0.2051,-0.28321 c -0.1553,-0.85781 -0.4818,-1.53096 -0.9961,-1.98632 -0.5143,-0.45537 -1.2039,-0.67774 -2.0254,-0.67774 z m 0,0.48633 c 0.7361,0 1.29,0.18882 1.7031,0.55469 0.3556,0.31485 0.5663,0.84916 0.7227,1.4707 l -0.8906,0.12305 c -0.082,-0.35013 -0.1739,-0.68994 -0.3868,-0.90625 -0.267,-0.27143 -0.6394,-0.4043 -1.0625,-0.4043 -0.6187,0 -1.1285,0.30775 -1.4121,0.85352 -0.2669,0.51846 -0.3945,1.13682 -0.3945,1.8457 0,0.7507 0.1297,1.3538 0.4218,1.80273 a 0.24296429,0.24296429 0 0 0 0,0.002 c 0.2963,0.44713 0.756,0.69726 1.2871,0.69726 0.4061,0 0.7742,-0.13995 1.0528,-0.41015 0.2299,-0.223 0.3668,-0.57084 0.4883,-0.94141 l 0.8867,0.0898 c -0.1844,0.68253 -0.4301,1.26342 -0.8282,1.59571 -0.4712,0.39342 -1.028,0.58789 -1.707,0.58789 -0.9269,0 -1.5916,-0.31759 -2.082,-0.97657 -0.4957,-0.67713 -0.7461,-1.50188 -0.7461,-2.5039 0,-1.03241 0.2726,-1.85735 0.8144,-2.51367 0.5384,-0.65214 1.2261,-0.9668 2.1348,-0.9668 z"
           id="path62-8" /><path
           style="color:#000000;-inkscape-font-specification:'Franklin Gothic Medium, ';fill:#745732;stroke-linejoin:round;-inkscape-stroke:none;paint-order:stroke fill markers"
           d="m 1136.0568,513.15387 1.3876,0.14159 q -0.269,1.34512 -1.0407,1.98936 -0.7717,0.64425 -1.862,0.64425 -1.4796,0 -2.2796,-1.0761 -0.7929,-1.08318 -0.7929,-2.64777 0,-1.61414 0.8708,-2.669 0.8708,-1.05486 2.3221,-1.05486 2.3363,0 2.7823,2.4637 l -1.3876,0.19114 q -0.1841,-1.33096 -1.3097,-1.33096 -0.8213,0 -1.1965,0.72212 -0.3681,0.71504 -0.3681,1.7345 0,1.08318 0.3823,1.67078 0.3893,0.58761 1.0831,0.58761 1.062,0 1.4089,-1.36636 z"
           id="path64-6" /></g><g
         id="text6-2-6-6-8-7"
         transform="scale(0.99600275,1.0040133)"><path
           style="color:#000000;-inkscape-font-specification:'Franklin Gothic Medium, ';fill:#745732;stroke-linejoin:round;-inkscape-stroke:none;paint-order:stroke fill markers"
           d="m 1043.6426,553.5332 c -1.1297,0 -2.085,0.45001 -2.7774,1.31446 -0.6874,0.85464 -1.0293,1.92629 -1.0293,3.16992 0,1.2487 0.3184,2.32461 0.9629,3.19531 a 0.29045053,0.29045053 0 0 0 0,0.002 c 0.6576,0.88255 1.6168,1.33985 2.7774,1.33985 1.1308,0 2.0833,-0.43283 2.7734,-1.26953 0.693,-0.83938 1.0332,-1.9367 1.0332,-3.25 0,-1.25383 -0.329,-2.32785 -0.9922,-3.1836 -0.665,-0.86724 -1.6114,-1.31836 -2.748,-1.31836 z m 0,0.58008 c 0.9908,0 1.7221,0.35189 2.289,1.0918 a 0.29045053,0.29045053 0 0 0 0,0.002 c 0.5768,0.74423 0.8692,1.674 0.8692,2.82813 0,1.21465 -0.3035,2.16026 -0.8985,2.88086 -0.5899,0.71526 -1.337,1.05859 -2.3261,1.05859 -1.0154,0 -1.7522,-0.358 -2.3106,-1.10742 -0.5635,-0.76127 -0.8496,-1.69836 -0.8496,-2.84961 0,-1.13968 0.3025,-2.06154 0.9024,-2.80664 0.5955,-0.74353 1.3419,-1.09766 2.3242,-1.09766 z m -0.025,0.60742 c -0.71,0 -1.3062,0.31769 -1.668,0.90039 -0.3617,0.58271 -0.5176,1.39533 -0.5176,2.44336 0,1.01934 0.159,1.82111 0.5235,2.4043 a 0.29045053,0.29045053 0 0 0 0,0.002 c 0.3677,0.57652 0.9489,0.89649 1.6309,0.89649 0.6121,0 1.1601,-0.27085 1.5723,-0.76367 0.4483,-0.53601 0.6211,-1.39329 0.6211,-2.58008 0,-0.97052 -0.1542,-1.75577 -0.4942,-2.35157 v -0.002 c -0.3472,-0.61125 -0.9493,-0.94922 -1.6699,-0.94922 z m 0,0.58008 c 0.5589,0 0.9032,0.19634 1.1641,0.65625 a 0.29045053,0.29045053 0 0 0 0,0.002 c 0.2674,0.46802 0.4179,1.15578 0.4179,2.06446 0,1.12516 -0.1967,1.86305 -0.4844,2.20703 -0.3238,0.38716 -0.675,0.55664 -1.1269,0.55664 -0.517,0 -0.8587,-0.1894 -1.1387,-0.62695 v -0.002 c -0.275,-0.44086 -0.4375,-1.13798 -0.4375,-2.09375 0,-0.98793 0.1614,-1.70144 0.4317,-2.13672 0.2702,-0.43528 0.6198,-0.62695 1.1738,-0.62695 z"
           id="path41-7" /><path
           style="color:#000000;-inkscape-font-specification:'Franklin Gothic Medium, ';fill:#745732;stroke-linejoin:round;-inkscape-stroke:none;paint-order:stroke fill markers"
           d="m 1043.576,562.26461 q -1.632,0 -2.5439,-1.22398 -0.906,-1.22398 -0.906,-3.02395 0,-1.78797 0.966,-2.98795 0.9659,-1.20598 2.5499,-1.20598 1.596,0 2.52,1.20598 0.93,1.19998 0.93,3.00595 0,1.89597 -0.966,3.06595 -0.96,1.16398 -2.55,1.16398 z m 0.012,-1.18798 q 0.798,0 1.35,-0.65999 0.552,-0.65999 0.552,-2.39396 0,-1.40998 -0.456,-2.20797 -0.456,-0.80398 -1.416,-0.80398 -1.896,0 -1.896,3.05395 0,1.48197 0.48,2.24996 0.486,0.76199 1.386,0.76199 z"
           id="path42-8" /></g><g
         id="text7-7-0-5-3"
         transform="scale(1.0946716,0.91351598)"><path
           style="color:#000000;-inkscape-font-specification:'Franklin Gothic Medium, ';fill:#745732;stroke-linejoin:round;-inkscape-stroke:none;paint-order:stroke fill markers"
           d="m 955.375,614.22852 c -0.68179,0 -1.26986,0.21393 -1.71094,0.63867 -0.4252,0.40933 -0.68945,0.91879 -0.77539,1.49804 a 0.26711971,0.26711971 0 0 0 0.19922,0.29883 l 1.02539,0.25391 a 0.26711971,0.26711971 0 0 0 0.32813,-0.22656 c 0.0461,-0.37522 0.156,-0.62419 0.29687,-0.77344 0.14087,-0.14925 0.32031,-0.22461 0.60352,-0.22461 0.25116,0 0.41683,0.0688 0.56054,0.2168 0.14785,0.15225 0.21485,0.31856 0.21485,0.55078 0,0.17079 -0.0727,0.38846 -0.2461,0.65039 -0.15631,0.23331 -0.51078,0.55666 -1.05859,0.92187 l -1.80859,1.20313 a 0.26711971,0.26711971 0 0 0 -0.11914,0.22265 v 1.03321 a 0.26711971,0.26711971 0 0 0 0.26757,0.26758 h 4.35157 a 0.26711971,0.26711971 0 0 0 0.26757,-0.26758 v -0.92188 a 0.26711971,0.26711971 0 0 0 -0.26757,-0.26758 h -2.21485 c 0.79397,-0.48506 1.62149,-0.97455 1.91406,-1.30859 0.38276,-0.44017 0.58594,-0.96356 0.58594,-1.5293 0,-0.63172 -0.22874,-1.18705 -0.66797,-1.60351 -0.44315,-0.42346 -1.0435,-0.63281 -1.74609,-0.63281 z m 0,0.53515 c 0.60095,0 1.04144,0.16378 1.37695,0.48438 a 0.26711971,0.26711971 0 0 0 0.002,0 c 0.33942,0.32183 0.5,0.70648 0.5,1.21679 0,0.44364 -0.14374,0.82194 -0.45313,1.17774 -0.28785,0.32864 -1.14261,0.92726 -2.50391,1.69531 a 0.26711971,0.26711971 0 0 0 0.13086,0.5 h 2.8086 v 0.38672 h -3.81641 v -0.62305 l 1.6875,-1.12304 c 0.57692,-0.38462 0.97886,-0.72489 1.20899,-1.06836 a 0.26711971,0.26711971 0 0 0 0,-0.002 c 0.21208,-0.31969 0.33398,-0.634 0.33398,-0.94726 0,-0.35034 -0.12663,-0.67616 -0.36523,-0.92188 -0.24273,-0.24997 -0.57737,-0.3789 -0.94336,-0.3789 -0.39164,0 -0.74517,0.12891 -0.99219,0.39062 -0.18255,0.1934 -0.25099,0.49684 -0.32422,0.79492 l -0.49414,-0.12304 c 0.0967,-0.35881 0.21878,-0.6981 0.50195,-0.97071 0.33759,-0.32508 0.7662,-0.48828 1.3418,-0.48828 z"
           id="path60-4" /><path
           style="color:#000000;-inkscape-font-specification:'Franklin Gothic Medium, ';fill:#745732;stroke-linejoin:round;-inkscape-stroke:none;paint-order:stroke fill markers"
           d="m 957.50386,619.57077 v 0.92142 H 953.152 v -1.03389 l 1.80823,-1.20261 q 0.84355,-0.56237 1.13338,-0.99496 0.28984,-0.43691 0.28984,-0.80029 0,-0.43692 -0.28984,-0.7354 -0.28983,-0.29849 -0.7527,-0.29849 -1.01227,0 -1.16367,1.23288 L 953.152,616.4042 q 0.1168,-0.78731 0.69647,-1.34535 0.584,-0.56237 1.52704,-0.56237 0.97766,0 1.56166,0.55804 0.58399,0.55372 0.58399,1.41025 0,0.75703 -0.51911,1.35401 -0.5191,0.59265 -2.57391,1.75199 z"
           id="path61-1" /></g></g><rect
       style="fill:#469137;fill-opacity:1;stroke:none;stroke-width:4;stroke-linecap:round;stroke-opacity:1;paint-order:stroke fill markers"
       id="rect65-3-2-4"
       width="11.074713"
       height="4.0411839"
       x="-790.3479"
       y="-1789.5864"
       rx="0.7849285"
       ry="0.7849285"
       transform="scale(-1)" /></g></svg>
