<?xml version="1.0" encoding="UTF-8" standalone="no"?>
<!-- Created with Inkscape (http://www.inkscape.org/) -->

<svg
   width="54.29213"
   height="48.269547"
   viewBox="0 0 54.292128 48.269547"
   version="1.1"
   id="svg1"
   inkscape:version="1.3 (0e150ed6c4, 2023-07-21)"
   sodipodi:docname="aerogenerator_blades.svg"
   xml:space="preserve"
   xmlns:inkscape="http://www.inkscape.org/namespaces/inkscape"
   xmlns:sodipodi="http://sodipodi.sourceforge.net/DTD/sodipodi-0.dtd"
   xmlns="http://www.w3.org/2000/svg"
   xmlns:svg="http://www.w3.org/2000/svg"><sodipodi:namedview
     id="namedview1"
     pagecolor="#505050"
     bordercolor="#eeeeee"
     borderopacity="1"
     inkscape:showpageshadow="false"
     inkscape:pageopacity="0"
     inkscape:pagecheckerboard="false"
     inkscape:deskcolor="#505050"
     inkscape:document-units="px"
     labelstyle="default"
     inkscape:zoom="6.4322346"
     inkscape:cx="53.480636"
     inkscape:cy="30.160591"
     inkscape:window-width="1920"
     inkscape:window-height="1017"
     inkscape:window-x="-8"
     inkscape:window-y="-8"
     inkscape:window-maximized="1"
     inkscape:current-layer="layer1" /><defs
     id="defs1"><inkscape:perspective
       sodipodi:type="inkscape:persp3d"
       inkscape:vp_x="195.60992 : -226.16053 : 1"
       inkscape:vp_y="0 : 1000 : 0"
       inkscape:vp_z="738.0796 : -312.73161 : 1"
       inkscape:persp3d-origin="399.99999 : -351.73045 : 1"
       id="perspective1" /></defs><g
     inkscape:label="Layer 1"
     inkscape:groupmode="layer"
     id="layer1"
     transform="translate(-769.7111,-1779.3976)"><path
       style="fill:#5a9ce0;fill-opacity:1;stroke:none;stroke-width:2.76304;stroke-linejoin:miter;stroke-dasharray:none;stroke-opacity:1;paint-order:stroke fill markers"
       d="m 771.03504,1824.58 27.1223,-12.8469 c 0,0 2.2714,-1.3114 0.7939,-2.6216 -1.4776,-1.3101 -15.4438,3.7247 -19.065,6.3202 -3.6211,2.5954 -10.2295,5.7618 -10.1748,7.6051 0.055,1.8432 1.3236,1.5432 1.3236,1.5432 z"
       id="path48-4-1-4" /><path
       style="fill:#5a9ce0;fill-opacity:1;stroke:none;stroke-width:2.76304;stroke-linejoin:miter;stroke-dasharray:none;stroke-opacity:1;paint-order:stroke fill markers"
       d="m 796.06427,1811.1472 2.04158,-29.9415 c 0,0 0.3902,-2.5937 2.14993,-1.6973 1.75956,0.8961 2.17939,15.7362 1.08744,20.0556 -1.09183,4.3194 -1.62303,11.628 -3.35873,12.251 -1.73549,0.6229 -1.92022,-0.6678 -1.92022,-0.6678 z"
       id="path48-4-4-3-3" /><path
       style="fill:#5a9ce0;fill-opacity:1;stroke:none;stroke-width:2.76304;stroke-linejoin:miter;stroke-dasharray:none;stroke-opacity:1;paint-order:stroke fill markers"
       d="m 823.74944,1825.6043 -24.6868,-17.0652 c 0,0 -2.2714,-1.3114 -2.6672,0.6233 -0.396,1.9346 10.9475,11.5123 15.0058,13.3506 4.0583,1.8383 10.1046,5.9781 11.6736,5.0092 1.5689,-0.969 0.6746,-1.9179 0.6746,-1.9179 z"
       id="path48-4-4-9-2-0" /></g></svg>
