<?xml version="1.0" encoding="UTF-8" standalone="no"?>
<!-- Created with Inkscape (http://www.inkscape.org/) -->

<svg
   width="44.462784"
   height="45.372906"
   viewBox="0 0 44.462784 45.372906"
   version="1.1"
   id="svg1"
   inkscape:version="1.3 (0e150ed6c4, 2023-07-21)"
   sodipodi:docname="power_plant.svg"
   xml:space="preserve"
   xmlns:inkscape="http://www.inkscape.org/namespaces/inkscape"
   xmlns:sodipodi="http://sodipodi.sourceforge.net/DTD/sodipodi-0.dtd"
   xmlns:xlink="http://www.w3.org/1999/xlink"
   xmlns="http://www.w3.org/2000/svg"
   xmlns:svg="http://www.w3.org/2000/svg"><sodipodi:namedview
     id="namedview1"
     pagecolor="#505050"
     bordercolor="#eeeeee"
     borderopacity="1"
     inkscape:showpageshadow="false"
     inkscape:pageopacity="0"
     inkscape:pagecheckerboard="false"
     inkscape:deskcolor="#505050"
     inkscape:document-units="px"
     labelstyle="default"
     inkscape:zoom="12.864469"
     inkscape:cx="14.769362"
     inkscape:cy="35.601935"
     inkscape:window-width="1920"
     inkscape:window-height="1017"
     inkscape:window-x="-8"
     inkscape:window-y="-8"
     inkscape:window-maximized="1"
     inkscape:current-layer="layer1" /><defs
     id="defs1"><inkscape:perspective
       sodipodi:type="inkscape:persp3d"
       inkscape:vp_x="195.60993 : -229.05717 : 1"
       inkscape:vp_y="0 : 999.99999 : 0"
       inkscape:vp_z="738.07962 : -315.62825 : 1"
       inkscape:persp3d-origin="400 : -354.6271 : 1"
       id="perspective1" /><radialGradient
       inkscape:collect="always"
       xlink:href="#linearGradient10"
       id="radialGradient11-4"
       cx="1062.7083"
       cy="393.0481"
       fx="1062.7083"
       fy="393.0481"
       r="24.62895"
       gradientTransform="matrix(1.4523908,0,0,0.45155518,-480.72352,214.96941)"
       gradientUnits="userSpaceOnUse" /><linearGradient
       id="linearGradient10"
       inkscape:collect="always"><stop
         style="stop-color:#48301c;stop-opacity:0;"
         offset="0"
         id="stop10" /><stop
         style="stop-color:#303524;stop-opacity:1;"
         offset="1"
         id="stop11" /></linearGradient></defs><g
     inkscape:label="Layer 1"
     inkscape:groupmode="layer"
     id="layer1"
     transform="translate(-798.49818,-1777.1194)"><g
       id="g47-7-8-87"
       transform="matrix(0.9026526,0,0,0.9026526,-138.45521,1458.483)"><ellipse
         style="fill:#4a301c;fill-opacity:1;stroke-width:2.20147;stroke-linejoin:round;paint-order:stroke fill markers"
         id="path18-0-2-6-7-52-1"
         cx="1062.6289"
         cy="389.85913"
         rx="24.628918"
         ry="8.8374357" /><ellipse
         style="fill:#4a301c;fill-opacity:1;stroke-width:2.20147;stroke-linejoin:round;paint-order:stroke fill markers"
         id="path18-0-2-5-1-2-7-2"
         cx="1062.6289"
         cy="394.42822"
         rx="24.628918"
         ry="8.8374357" /><path
         style="fill:#4a301c;fill-opacity:1;stroke-width:2.20147;stroke-linejoin:round;paint-order:stroke fill markers"
         d="m 1038,389.85914 v 4.56907 h 49.2579 v -4.56907 z"
         id="path44-6-9-0-49"
         sodipodi:nodetypes="ccccc" /><path
         id="path18-0-2-6-7-52-6-07"
         style="fill:url(#radialGradient11-4);stroke-width:2.20145;stroke-linejoin:round;paint-order:stroke fill markers"
         d="M 1062.6301,381.02354 A 24.628735,8.8373703 0 0 0 1038,389.85925 v 4.56885 a 24.628735,8.8373703 0 0 0 24.6301,8.83809 24.628735,8.8373703 0 0 0 24.6278,-8.83809 v -4.56885 a 24.628735,8.8373703 0 0 0 -24.6278,-8.83571 z" /><path
         id="path43-2-2-5-1"
         style="fill:#e36a2a;fill-opacity:1;stroke-width:2.20147;stroke-linejoin:round;paint-order:stroke fill markers"
         d="m 1062.5741,366.19465 a 21.090569,21.965349 0 0 0 -21.0913,21.96521 21.14585,7.5876297 0 0 0 21.1461,7.58796 21.14585,7.5876297 0 0 0 21.1461,-7.58796 21.14585,7.5876297 0 0 0 -0.1709,-0.961 21.090569,21.965349 0 0 0 -21.03,-21.00421 z" /><ellipse
         style="fill:#86633b;fill-opacity:1;stroke-width:2.20147;stroke-linejoin:round;paint-order:stroke fill markers"
         id="path18-2-0-7-4-6-9-5-0"
         cx="1062.5741"
         cy="368.74814"
         rx="9.8702898"
         ry="3.5416925" /><path
         style="fill:#86633b;fill-opacity:1;stroke-width:2.20147;stroke-linejoin:round;paint-order:stroke fill markers"
         d="m 1052.7038,368.74814 2.3634,-13.05447 h 15.0138 l 2.3634,13.05447 z"
         id="path42-7-0-5-4-1"
         sodipodi:nodetypes="ccccc" /><ellipse
         style="fill:#6f5236;fill-opacity:1;stroke-width:2.20147;stroke-linejoin:round;paint-order:stroke fill markers"
         id="path18-2-0-70-9-2-8-7"
         cx="1062.5741"
         cy="355.69366"
         rx="7.5069294"
         ry="2.6936631" /><path
         style="fill:#3a2d1d;fill-opacity:1;stroke:#bf561c;stroke-width:2.75183;stroke-linejoin:miter;stroke-dasharray:none;stroke-opacity:1;paint-order:stroke fill markers"
         d="m 1045.6995,389.5426 c 0,0 3.7727,2.20891 8.3424,2.65057 4.9155,0.47507 8.7022,0.25915 8.7022,0.25915 0,0 -0.017,-6.91128 -1.4987,-12.4415 -0.869,-3.24332 -9.3618,-5.04132 -11.3335,-1.62633 0,0 -1.7255,1.87716 -4.2124,11.15811 z"
         id="path45-7-1-6-9"
         sodipodi:nodetypes="cscccc" /><ellipse
         style="fill:#402f20;fill-opacity:1;stroke-width:2.20147;stroke-linejoin:round;paint-order:stroke fill markers"
         id="path18-2-0-70-1-2-4-1-6"
         cx="1062.5741"
         cy="355.69366"
         rx="4.9122529"
         ry="1.7626319" /><path
         style="fill:#ae5522;fill-opacity:1;stroke-width:2.20147;stroke-linejoin:round;paint-order:stroke fill markers"
         d="m 1071.0564,374.30145 0.2286,8.26778 3.4679,0.5957 2.2193,6.18968 0.4508,-8.83744 -3.5334,-1.68603 z"
         id="path46-0-9-5-8"
         sodipodi:nodetypes="ccccccc" /></g></g></svg>
