<?xml version="1.0" encoding="UTF-8" standalone="no"?>
<!-- Created with Inkscape (http://www.inkscape.org/) -->

<svg
   width="11.234396"
   height="15.0767"
   viewBox="0 0 11.234396 15.0767"
   version="1.1"
   id="svg1"
   inkscape:version="1.3 (0e150ed6c4, 2023-07-21)"
   sodipodi:docname="power_plant_fire.svg"
   xml:space="preserve"
   xmlns:inkscape="http://www.inkscape.org/namespaces/inkscape"
   xmlns:sodipodi="http://sodipodi.sourceforge.net/DTD/sodipodi-0.dtd"
   xmlns="http://www.w3.org/2000/svg"
   xmlns:svg="http://www.w3.org/2000/svg"><sodipodi:namedview
     id="namedview1"
     pagecolor="#505050"
     bordercolor="#eeeeee"
     borderopacity="1"
     inkscape:showpageshadow="false"
     inkscape:pageopacity="0"
     inkscape:pagecheckerboard="false"
     inkscape:deskcolor="#505050"
     inkscape:document-units="px"
     labelstyle="default"
     inkscape:zoom="18.193107"
     inkscape:cx="4.3972698"
     inkscape:cy="20.612202"
     inkscape:window-width="1920"
     inkscape:window-height="1017"
     inkscape:window-x="-8"
     inkscape:window-y="-8"
     inkscape:window-maximized="1"
     inkscape:current-layer="layer1" /><defs
     id="defs1"><inkscape:perspective
       sodipodi:type="inkscape:persp3d"
       inkscape:vp_x="195.60993 : -259.35337 : 1"
       inkscape:vp_y="0 : 999.99997 : 0"
       inkscape:vp_z="738.07962 : -345.92445 : 1"
       inkscape:persp3d-origin="400 : -384.9233 : 1"
       id="perspective1" /></defs><g
     inkscape:label="Layer 1"
     inkscape:groupmode="layer"
     id="layer1"
     transform="translate(-808.34785,-1797.1658)"><path
       style="fill:#f14f39;fill-opacity:1;stroke:none;stroke-width:0.291557;stroke-linejoin:miter;stroke-dasharray:none;stroke-opacity:1;paint-order:stroke fill markers"
       d="m 815.6652,1797.1658 c -6.27308,2.2668 -5.00792,6.774 -5.00792,6.774 0,0 -0.89624,-0.7908 -0.92251,-2.135 -3.55826,4.639 0.44573,10.4377 3.98007,10.4377 4.69379,0 7.48551,-4.4281 4.84986,-10.016 -0.0533,1.8451 -0.94887,3.8219 -0.94887,3.8219 0.19001,-2.6918 -4.37534,-6.1414 -1.95063,-8.8826 z"
       id="path47-6-5-2-32"
       sodipodi:nodetypes="ccccccc" /><path
       style="fill:#f1a539;fill-opacity:1;stroke:none;stroke-width:0.154574;stroke-linejoin:miter;stroke-dasharray:none;stroke-opacity:1;paint-order:stroke fill markers"
       d="m 814.86138,1804.1656 c -3.53108,1.1318 -2.81889,3.3825 -2.81889,3.3825 0,0 -0.50449,-0.3949 -0.51939,-1.0661 -2.00289,2.3164 0.25094,5.2119 2.24048,5.2119 2.64206,0 4.21349,-2.2111 2.72998,-5.0013 -0.0307,0.9213 -0.5341,1.9084 -0.5341,1.9084 0.10688,-1.3442 -2.46289,-3.0667 -1.09808,-4.4354 z"
       id="path47-0-7-9-5-01"
       sodipodi:nodetypes="ccccccc" /></g></svg>
