<?xml version="1.0" encoding="UTF-8" standalone="no"?>
<!-- Created with Inkscape (http://www.inkscape.org/) -->

<svg
   width="52.367863"
   height="52.368988"
   viewBox="0 0 52.367863 52.368988"
   version="1.1"
   id="svg1"
   inkscape:version="1.3 (0e150ed6c4, 2023-07-21)"
   sodipodi:docname="moon.svg"
   xml:space="preserve"
   xmlns:inkscape="http://www.inkscape.org/namespaces/inkscape"
   xmlns:sodipodi="http://sodipodi.sourceforge.net/DTD/sodipodi-0.dtd"
   xmlns="http://www.w3.org/2000/svg"
   xmlns:svg="http://www.w3.org/2000/svg"><sodipodi:namedview
     id="namedview1"
     pagecolor="#505050"
     bordercolor="#eeeeee"
     borderopacity="1"
     inkscape:showpageshadow="false"
     inkscape:pageopacity="0"
     inkscape:pagecheckerboard="false"
     inkscape:deskcolor="#505050"
     inkscape:document-units="px"
     labelstyle="default"
     inkscape:zoom="3.2161174"
     inkscape:cx="22.387243"
     inkscape:cy="49.438494"
     inkscape:window-width="1920"
     inkscape:window-height="1017"
     inkscape:window-x="-8"
     inkscape:window-y="-8"
     inkscape:window-maximized="1"
     inkscape:current-layer="layer1" /><defs
     id="defs1"><inkscape:perspective
       sodipodi:type="inkscape:persp3d"
       inkscape:vp_x="195.60993 : -222.06109 : 1"
       inkscape:vp_y="0 : 999.99998 : 0"
       inkscape:vp_z="738.07962 : -308.63217 : 1"
       inkscape:persp3d-origin="400 : -347.63102 : 1"
       id="perspective1" /></defs><g
     inkscape:label="Layer 1"
     inkscape:groupmode="layer"
     id="layer1"
     transform="translate(-1074.595,-2134.9791)"><g
       id="g216"
       transform="matrix(0.85334403,0,0,0.85334403,-2108.4984,2750.7835)"><circle
         style="fill:#0d2133;fill-opacity:1;stroke:none;stroke-width:5;stroke-linejoin:round;stroke-dasharray:none;stroke-opacity:1;paint-order:stroke fill markers"
         id="path26-1-6-55-42"
         cx="3760.8247"
         cy="-690.95209"
         r="30.68391" /><path
         id="path26-6-9"
         style="fill:#184e6f;fill-opacity:1;stroke:none;stroke-width:5;stroke-linejoin:round;stroke-dasharray:none;stroke-opacity:1;paint-order:stroke fill markers"
         d="m 3760.8243,-721.63679 a 30.68391,30.68391 0 0 0 -3.0664,0.20899 46.405415,46.405415 0 0 1 11.4277,30.47656 46.405415,46.405415 0 0 1 -0.049,0.68359 30.68391,30.68391 0 0 1 -0.2481,3.45313 46.405415,46.405415 0 0 1 -11.123,26.33593 30.68391,30.68391 0 0 0 3.0586,0.21094 30.68391,30.68391 0 0 0 30.6836,-30.68359 30.68391,30.68391 0 0 0 -30.6836,-30.68555 z" /><ellipse
         style="fill:#134360;fill-opacity:1;stroke:none;stroke-width:20.1831;stroke-linecap:round;stroke-dasharray:none;stroke-opacity:1;paint-order:stroke fill markers"
         id="path67-4"
         cx="3846.3438"
         cy="-1435.556"
         rx="6.0428462"
         ry="5.9337187"
         transform="matrix(0.98194101,0.18918736,0,1,0,0)" /><ellipse
         style="fill:#134360;fill-opacity:1;stroke:none;stroke-width:22.7759;stroke-linecap:round;stroke-dasharray:none;stroke-opacity:1;paint-order:stroke fill markers"
         id="path67-9-27"
         cx="3806.6858"
         cy="-263.15097"
         rx="6.4740162"
         ry="7.0528827"
         transform="matrix(0.99377551,-0.11140124,0,1,0,0)" /><ellipse
         style="fill:#134360;fill-opacity:1;stroke:none;stroke-width:14.1329;stroke-linecap:round;stroke-dasharray:none;stroke-opacity:1;paint-order:stroke fill markers"
         id="path67-9-2-4"
         cx="3744.3982"
         cy="-273.76895"
         rx="4.066545"
         ry="4.323431"
         transform="matrix(0.99425943,-0.1069962,-0.1772499,0.98416588,0,0)" /><ellipse
         style="fill:#134360;fill-opacity:1;stroke:none;stroke-width:13.1115;stroke-linecap:round;stroke-dasharray:none;stroke-opacity:1;paint-order:stroke fill markers"
         id="path67-9-6-8"
         cx="3788.7964"
         cy="-1026.1018"
         rx="3.8973744"
         ry="3.8825951"
         transform="matrix(0.99620785,0.08700529,0,1,0,0)" /></g></g></svg>
