<?xml version="1.0" encoding="UTF-8" standalone="no"?>
<!-- Created with Inkscape (http://www.inkscape.org/) -->

<svg
   width="19.232944"
   height="25.093605"
   viewBox="0 0 19.232944 25.093605"
   version="1.1"
   id="svg1"
   inkscape:version="1.3 (0e150ed6c4, 2023-07-21)"
   sodipodi:docname="energy_overcharge.svg"
   xml:space="preserve"
   xmlns:inkscape="http://www.inkscape.org/namespaces/inkscape"
   xmlns:sodipodi="http://sodipodi.sourceforge.net/DTD/sodipodi-0.dtd"
   xmlns="http://www.w3.org/2000/svg"
   xmlns:svg="http://www.w3.org/2000/svg"><sodipodi:namedview
     id="namedview1"
     pagecolor="#505050"
     bordercolor="#eeeeee"
     borderopacity="1"
     inkscape:showpageshadow="false"
     inkscape:pageopacity="0"
     inkscape:pagecheckerboard="false"
     inkscape:deskcolor="#505050"
     inkscape:document-units="px"
     labelstyle="default"
     inkscape:zoom="3.2161173"
     inkscape:cx="49.438495"
     inkscape:cy="-14.613895"
     inkscape:window-width="1920"
     inkscape:window-height="1017"
     inkscape:window-x="-8"
     inkscape:window-y="-8"
     inkscape:window-maximized="1"
     inkscape:current-layer="layer1" /><defs
     id="defs1"><inkscape:perspective
       sodipodi:type="inkscape:persp3d"
       inkscape:vp_x="195.60993 : -249.33647 : 1"
       inkscape:vp_y="0 : 999.99999 : 0"
       inkscape:vp_z="738.07961 : -335.90755 : 1"
       inkscape:persp3d-origin="399.99998 : -374.9064 : 1"
       id="perspective1" /></defs><g
     inkscape:label="Layer 1"
     inkscape:groupmode="layer"
     id="layer1"
     transform="translate(-861.22941,-1820.0061)"><g
       id="g77-1-0"
       transform="matrix(1.292548,0,0,1.292548,-748.80636,1227.18)"
       style="fill:#ff6464;fill-opacity:1;stroke-width:0.773666"><g
         id="g59-0-4"
         transform="matrix(0.6691896,0,0,0.6691896,413.26357,156.37983)"
         style="fill:#ff6464;fill-opacity:1;stroke-width:1.15612"><path
           id="path47-6-61-4-49-9"
           style="fill:#ff6464;fill-opacity:1;stroke:none;stroke-width:0.648627;stroke-linejoin:miter;stroke-dasharray:none;stroke-opacity:1;paint-order:stroke fill markers"
           d="m 1257.9223,451.69462 c -12.0712,4.36184 -9.6374,13.03465 -9.6374,13.03465 0,0 -1.724,-1.51986 -1.7745,-4.10653 -6.8471,8.92664 0.8575,20.08318 7.6585,20.08318 9.0322,0 15.144,-6.4674 10.0723,-17.21999 -0.1025,3.55037 -1.8271,7.35498 -1.8271,7.35498 0.3656,-5.17983 -9.1576,-13.87149 -4.4918,-19.14629 z m -2.3962,8.20722 -0.2539,8.34148 5.023,2.46041 -7.6819,8.19847 0.1693,-6.529 -4.1357,-3.20175 z" /></g><path
         style="fill:#ff6464;fill-opacity:1;stroke:none;stroke-width:1.1605;stroke-dasharray:none;stroke-opacity:1;paint-order:stroke fill markers"
         d="m 1258.8259,465.69404 c 0,0 -1.0553,-1.18712 -0.8793,-2.19838 0.1758,-1.01124 0.6594,-1.27504 0.6594,-1.27504 z"
         id="path59-2-0" /></g></g></svg>
