<?xml version="1.0" encoding="UTF-8" standalone="no"?>
<!-- Created with Inkscape (http://www.inkscape.org/) -->

<svg
   width="20.12726"
   height="21.355415"
   viewBox="0 0 20.12726 21.355415"
   version="1.1"
   id="svg1"
   inkscape:version="1.3 (0e150ed6c4, 2023-07-21)"
   sodipodi:docname="pollution_bad.svg"
   xml:space="preserve"
   xmlns:inkscape="http://www.inkscape.org/namespaces/inkscape"
   xmlns:sodipodi="http://sodipodi.sourceforge.net/DTD/sodipodi-0.dtd"
   xmlns="http://www.w3.org/2000/svg"
   xmlns:svg="http://www.w3.org/2000/svg"><sodipodi:namedview
     id="namedview1"
     pagecolor="#505050"
     bordercolor="#eeeeee"
     borderopacity="1"
     inkscape:showpageshadow="false"
     inkscape:pageopacity="0"
     inkscape:pagecheckerboard="false"
     inkscape:deskcolor="#505050"
     inkscape:document-units="px"
     labelstyle="default"
     inkscape:zoom="3.2161173"
     inkscape:cx="48.19476"
     inkscape:cy="6.8405465"
     inkscape:window-width="1920"
     inkscape:window-height="1017"
     inkscape:window-x="-8"
     inkscape:window-y="-8"
     inkscape:window-maximized="1"
     inkscape:current-layer="layer1" /><defs
     id="defs1"><inkscape:perspective
       sodipodi:type="inkscape:persp3d"
       inkscape:vp_x="195.60993 : -253.07466 : 1"
       inkscape:vp_y="0 : 999.99997 : 0"
       inkscape:vp_z="738.07962 : -339.64574 : 1"
       inkscape:persp3d-origin="399.99998 : -378.64459 : 1"
       id="perspective1" /></defs><g
     inkscape:label="Layer 1"
     inkscape:groupmode="layer"
     id="layer1"
     transform="translate(-862.22938,-1799.0062)"><g
       id="g39"
       transform="matrix(1.3390856,0,0,1.3390856,-806.68198,1127.6689)"
       style="fill:#ff6464;fill-opacity:1;stroke-width:0.852703"><path
         id="path38"
         style="fill:#ff6464;fill-opacity:1;stroke:none;stroke-width:2.4855;stroke-dasharray:none;stroke-opacity:1;paint-order:stroke fill markers"
         d="m 1253.822,501.34008 a 7.5156665,6.8011103 0 0 0 -7.5153,6.80084 7.5156665,6.8011103 0 0 0 4.7531,6.30852 v 2.23936 l 0.6775,0.59904 1.2831,-1.33751 0.9301,0.73847 0.7973,-0.62084 1.3027,1.21988 0.5337,-0.89094 v -1.94746 a 7.5156665,6.8011103 0 0 0 4.7531,-6.30852 7.5156665,6.8011103 0 0 0 -7.5153,-6.80084 z m 1.551,3.66836 2.2263,2.22628 1.8385,-1.83854 0.843,0.84303 -1.8385,1.83853 1.3811,1.38326 -0.8409,0.84303 -1.3832,-1.38326 -1.771,1.771 -0.8431,-0.84302 1.771,-1.77101 -2.2262,-2.22628 z m -2.6968,0.002 0.8408,0.84085 -2.2263,2.22628 1.7711,1.77101 -0.8431,0.84302 -1.7688,-1.771 -1.3833,1.38326 -0.843,-0.84303 1.3833,-1.38326 -1.8386,-1.83853 0.8409,-0.84303 1.8407,1.84072 z" /></g></g></svg>
