<?xml version="1.0" encoding="UTF-8" standalone="no"?>
<!-- Created with Inkscape (http://www.inkscape.org/) -->

<svg
   width="16.901405"
   height="23.493801"
   viewBox="0 0 16.901405 23.493801"
   version="1.1"
   id="svg1"
   inkscape:version="1.3 (0e150ed6c4, 2023-07-21)"
   sodipodi:docname="pollution_ok.svg"
   xml:space="preserve"
   xmlns:inkscape="http://www.inkscape.org/namespaces/inkscape"
   xmlns:sodipodi="http://sodipodi.sourceforge.net/DTD/sodipodi-0.dtd"
   xmlns="http://www.w3.org/2000/svg"
   xmlns:svg="http://www.w3.org/2000/svg"><sodipodi:namedview
     id="namedview1"
     pagecolor="#505050"
     bordercolor="#eeeeee"
     borderopacity="1"
     inkscape:showpageshadow="false"
     inkscape:pageopacity="0"
     inkscape:pagecheckerboard="false"
     inkscape:deskcolor="#505050"
     inkscape:document-units="px"
     labelstyle="default"
     inkscape:zoom="3.2161173"
     inkscape:cx="47.261958"
     inkscape:cy="9.017084"
     inkscape:window-width="1920"
     inkscape:window-height="1017"
     inkscape:window-x="-8"
     inkscape:window-y="-8"
     inkscape:window-maximized="1"
     inkscape:current-layer="layer1" /><defs
     id="defs1"><inkscape:perspective
       sodipodi:type="inkscape:persp3d"
       inkscape:vp_x="195.60993 : -250.93628 : 1"
       inkscape:vp_y="0 : 999.99998 : 0"
       inkscape:vp_z="738.07961 : -337.50736 : 1"
       inkscape:persp3d-origin="399.99998 : -376.50621 : 1"
       id="perspective1" /></defs><g
     inkscape:label="Layer 1"
     inkscape:groupmode="layer"
     id="layer1"
     transform="translate(-863.22942,-1797.0062)"><path
       style="fill:#399351;fill-opacity:1;stroke-width:1"
       d="m 878.73143,1820.4397 c -0.4127,-2.1003 -1.0135,-4.3573 -2.6299,-5.8679 -4.0816,-2.9114 -7.0305,-7.2782 -8.426,-12.0741 1.6567,4.6709 5.0574,8.5227 8.9809,11.4591 0.7803,0.6352 1.3971,1.439 1.9415,2.2787 1.8606,-3.0032 2.1299,-7.0993 0.24,-10.1587 -1.9663,-3.2453 -5.4821,-5.1232 -8.9339,-6.4094 -1.5659,-0.5503 -2.8932,-1.587 -4.1334,-2.6612 -2.1195,3.4114 -3.1062,7.6548 -2.2109,11.6127 1.0173,3.8837 4.1621,7.2924 8.1848,8.056 1.4177,0.3024 2.8811,0.3125 4.3184,0.1691 0.6693,0.8828 0.9697,2.0071 1.1946,3.0842 0.2371,0.1633 1.3972,0.7616 1.4739,0.5115 z"
       id="path69" /></g></svg>
