<?xml version="1.0" encoding="UTF-8" standalone="no"?>
<!-- Created with Inkscape (http://www.inkscape.org/) -->

<svg
   width="21.358299"
   height="40.309917"
   viewBox="0 0 21.358299 40.309917"
   version="1.1"
   id="svg1"
   inkscape:version="1.3 (0e150ed6c4, 2023-07-21)"
   sodipodi:docname="slider_grab_pollution.svg"
   xml:space="preserve"
   xmlns:inkscape="http://www.inkscape.org/namespaces/inkscape"
   xmlns:sodipodi="http://sodipodi.sourceforge.net/DTD/sodipodi-0.dtd"
   xmlns="http://www.w3.org/2000/svg"
   xmlns:svg="http://www.w3.org/2000/svg"><sodipodi:namedview
     id="namedview1"
     pagecolor="#505050"
     bordercolor="#eeeeee"
     borderopacity="1"
     inkscape:showpageshadow="false"
     inkscape:pageopacity="0"
     inkscape:pagecheckerboard="false"
     inkscape:deskcolor="#505050"
     inkscape:document-units="px"
     labelstyle="default"
     inkscape:zoom="12.864469"
     inkscape:cx="20.288439"
     inkscape:cy="15.158029"
     inkscape:window-width="1920"
     inkscape:window-height="1017"
     inkscape:window-x="-8"
     inkscape:window-y="-8"
     inkscape:window-maximized="1"
     inkscape:current-layer="layer1" /><defs
     id="defs1"><inkscape:perspective
       sodipodi:type="inkscape:persp3d"
       inkscape:vp_x="195.60993 : -234.12015 : 1"
       inkscape:vp_y="0 : 999.99997 : 0"
       inkscape:vp_z="738.07962 : -320.69123 : 1"
       inkscape:persp3d-origin="399.99999 : -359.69008 : 1"
       id="perspective1" /></defs><g
     inkscape:label="Layer 1"
     inkscape:groupmode="layer"
     id="layer1"
     transform="translate(-849.22943,-1805.7327)"><circle
       style="fill:#917f65;fill-opacity:1;stroke:#d4ba95;stroke-width:4;stroke-linecap:round;stroke-linejoin:miter;stroke-dasharray:none;stroke-dashoffset:0;stroke-opacity:1;paint-order:stroke fill markers"
       id="path77-6"
       cx="859.90851"
       cy="1837.3914"
       r="6.6512341" /><path
       style="fill:#0f162c;fill-opacity:1;stroke:#d4bb95;stroke-width:2;stroke-dasharray:none;stroke-opacity:1;paint-order:stroke fill markers"
       d="m 850.28503,1828.1865 9.5351,9.5184 9.7676,-9.7505 v -17.6439 c 0,-4.7606 -19.3583,-4.8372 -19.3583,0.1715 z"
       id="path40-0"
       sodipodi:nodetypes="cccccc" /><g
       id="g37"
       transform="matrix(0.66896525,0,0,0.66896525,164.92064,1442.9682)"
       style="stroke-width:2.14496"><path
         id="path5-0"
         style="fill:#c28d46;fill-opacity:1;stroke:none;stroke-width:7.17506;stroke-linejoin:round;stroke-dasharray:none;stroke-opacity:1;paint-order:stroke fill markers"
         d="m 1038.5034,551.375 a 8.1434868,8.0268301 0 0 0 -7.9341,6.31177 5.439036,5.3611216 0 0 0 -4.0942,5.18418 5.439036,5.3611216 0 0 0 4.5041,5.27209 6.7965816,6.6992197 0 0 0 6.5723,5.0431 6.7965816,6.6992197 0 0 0 6.1975,-3.95626 6.0037011,5.9176976 0 0 0 1.4404,0.18568 6.0037011,5.9176976 0 0 0 6.0036,-5.91776 6.0037011,5.9176976 0 0 0 -4.7296,-5.78123 8.1434868,8.0268301 0 0 0 -7.96,-6.34157 z" /><path
         style="font-size:14.499px;font-family:'Franklin Gothic Medium';-inkscape-font-specification:'Franklin Gothic Medium, ';letter-spacing:0px;fill:#745732;stroke:#745732;stroke-width:1.0422;stroke-linejoin:round;paint-order:stroke fill markers"
         d="m 1136.0568,513.15387 1.3876,0.14159 q -0.269,1.34512 -1.0407,1.98936 -0.7717,0.64425 -1.862,0.64425 -1.4796,0 -2.2796,-1.0761 -0.7929,-1.08318 -0.7929,-2.64777 0,-1.61414 0.8708,-2.669 0.8708,-1.05486 2.3221,-1.05486 2.3363,0 2.7823,2.4637 l -1.3876,0.19114 q -0.1841,-1.33096 -1.3097,-1.33096 -0.8213,0 -1.1965,0.72212 -0.3681,0.71504 -0.3681,1.7345 0,1.08318 0.3823,1.67078 0.3893,0.58761 1.0831,0.58761 1.062,0 1.4089,-1.36636 z"
         id="text6-55"
         transform="scale(0.91016266,1.0987047)"
         aria-label="c" /><path
         style="font-size:12.2878px;font-family:'Franklin Gothic Medium';-inkscape-font-specification:'Franklin Gothic Medium, ';letter-spacing:0px;fill:#745732;stroke:#745732;stroke-width:1.24588;stroke-linejoin:round;paint-order:stroke fill markers"
         d="m 1043.576,562.26461 q -1.632,0 -2.5439,-1.22398 -0.906,-1.22398 -0.906,-3.02395 0,-1.78797 0.966,-2.98795 0.9659,-1.20598 2.5499,-1.20598 1.596,0 2.52,1.20598 0.93,1.19998 0.93,3.00595 0,1.89597 -0.966,3.06595 -0.96,1.16398 -2.55,1.16398 z m 0.012,-1.18798 q 0.798,0 1.35,-0.65999 0.552,-0.65999 0.552,-2.39396 0,-1.40998 -0.456,-2.20797 -0.456,-0.80398 -1.416,-0.80398 -1.896,0 -1.896,3.05395 0,1.48197 0.48,2.24996 0.486,0.76199 1.386,0.76199 z"
         id="text6-2-6"
         transform="scale(0.99600275,1.0040133)"
         aria-label="O" /><path
         d="m 957.50386,619.57077 v 0.92142 H 953.152 v -1.03389 l 1.80823,-1.20261 q 0.84355,-0.56237 1.13338,-0.99496 0.28984,-0.43691 0.28984,-0.80029 0,-0.43692 -0.28984,-0.7354 -0.28983,-0.29849 -0.7527,-0.29849 -1.01227,0 -1.16367,1.23288 L 953.152,616.4042 q 0.1168,-0.78731 0.69647,-1.34535 0.584,-0.56237 1.52704,-0.56237 0.97766,0 1.56166,0.55804 0.58399,0.55372 0.58399,1.41025 0,0.75703 -0.51911,1.35401 -0.5191,0.59265 -2.57391,1.75199 z"
         id="text7-7"
         style="font-size:8.85946px;font-family:'Franklin Gothic Medium';-inkscape-font-specification:'Franklin Gothic Medium, ';fill:#745732;stroke:#745732;stroke-width:1.14581;stroke-linejoin:round;paint-order:stroke fill markers"
         transform="scale(1.0946716,0.91351598)"
         aria-label="2" /></g></g></svg>
