<?xml version="1.0" encoding="UTF-8" standalone="no"?>
<!-- Created with Inkscape (http://www.inkscape.org/) -->

<svg
   width="446.4375"
   height="216.1593"
   viewBox="0 0 446.43749 216.1593"
   version="1.1"
   id="svg1"
   inkscape:version="1.3 (0e150ed6c4, 2023-07-21)"
   sodipodi:docname="game_title.svg"
   xml:space="preserve"
   xmlns:inkscape="http://www.inkscape.org/namespaces/inkscape"
   xmlns:sodipodi="http://sodipodi.sourceforge.net/DTD/sodipodi-0.dtd"
   xmlns="http://www.w3.org/2000/svg"
   xmlns:svg="http://www.w3.org/2000/svg"><sodipodi:namedview
     id="namedview1"
     pagecolor="#505050"
     bordercolor="#eeeeee"
     borderopacity="1"
     inkscape:showpageshadow="false"
     inkscape:pageopacity="0"
     inkscape:pagecheckerboard="false"
     inkscape:deskcolor="#505050"
     inkscape:document-units="px"
     labelstyle="default"
     inkscape:zoom="1.1370692"
     inkscape:cx="179.40861"
     inkscape:cy="182.04697"
     inkscape:window-width="1920"
     inkscape:window-height="1017"
     inkscape:window-x="-8"
     inkscape:window-y="-8"
     inkscape:window-maximized="1"
     inkscape:current-layer="layer1" /><defs
     id="defs1"><inkscape:perspective
       sodipodi:type="inkscape:persp3d"
       inkscape:vp_x="195.60992 : -58.270778 : 1"
       inkscape:vp_y="0 : 999.99997 : 0"
       inkscape:vp_z="738.0796 : -144.84186 : 1"
       inkscape:persp3d-origin="399.99999 : -183.8407 : 1"
       id="perspective1" /></defs><g
     inkscape:label="Layer 1"
     inkscape:groupmode="layer"
     id="layer1"
     transform="translate(-1490.7111,-1642.3975)"><g
       id="text4-9"
       style="font-size:114.482px;font-family:'Franklin Gothic Medium';-inkscape-font-specification:'Franklin Gothic Medium, ';text-align:center;letter-spacing:0px;text-anchor:middle;fill:#eff882;stroke-width:1.39026;stroke-linecap:round;paint-order:stroke fill markers"
       aria-label="&#10;SOLAR"><path
         d="m 1598.209,1797.5147 q -0.559,1.118 -1.3416,1.6211 -0.7267,0.4472 -1.8447,0.4472 -1.0621,0 -2.2919,-0.7826 -1.2298,-0.7826 -2.9067,-1.677 -1.6211,-0.9503 -3.8012,-1.7329 -2.1801,-0.7826 -5.0309,-0.7826 -5.031,0 -7.6024,2.4596 -2.5154,2.4596 -2.5154,6.4284 0,2.5155 1.3415,4.1925 1.3975,1.6211 3.6335,2.8508 2.2919,1.1739 5.1428,2.1242 2.9067,0.9503 5.9253,2.0683 3.0186,1.0621 5.8694,2.5714 2.9068,1.4534 5.1428,3.6893 2.2919,2.236 3.6334,5.4782 1.3975,3.2421 1.3975,7.8818 0,5.0309 -1.677,9.447 -1.621,4.4161 -4.8073,7.7141 -3.1863,3.2422 -7.8259,5.1428 -4.5838,1.9005 -10.5091,1.9005 -3.354,0 -6.7079,-0.7266 -3.2981,-0.6708 -6.3726,-1.9565 -3.0744,-1.2857 -5.8135,-3.0745 -2.7391,-1.7888 -4.8074,-4.0248 l 4.3602,-6.9874 q 0.5031,-0.8385 1.3416,-1.3416 0.8944,-0.5031 1.9006,-0.5031 1.3415,0 2.739,1.0621 1.4534,1.0062 3.354,2.2919 1.9006,1.2298 4.416,2.2919 2.5155,1.0062 5.9813,1.0062 5.0309,0 7.8259,-2.5714 2.795,-2.5714 2.795,-7.6023 0,-2.8509 -1.3975,-4.6397 -1.3416,-1.7888 -3.5776,-2.9626 -2.236,-1.2298 -5.1427,-2.0683 -2.8509,-0.8944 -5.8695,-1.9006 -2.9626,-1.0062 -5.8694,-2.4037 -2.8509,-1.4534 -5.0868,-3.8011 -2.236,-2.3478 -3.6335,-5.8136 -1.3416,-3.4657 -1.3416,-8.6085 0,-4.0806 1.5652,-7.9377 1.5652,-3.913 4.5837,-6.9315 3.0186,-3.0186 7.3788,-4.8074 4.416,-1.8447 10.0619,-1.8447 6.3725,0 11.7947,2.0683 5.4782,2.0683 9.3352,5.8136 z"
         id="path1" /><path
         style="font-weight:bold;font-family:Carlito;-inkscape-font-specification:'Carlito Bold'"
         d="m 1681.2196,1820.6011 q 0,8.1614 -2.5714,15.1488 -2.5713,6.9315 -7.3228,12.0184 -4.6955,5.0868 -11.3476,7.9377 -6.652,2.8508 -14.7574,2.8508 -8.1054,0 -14.7575,-2.8508 -6.652,-2.8509 -11.4034,-7.9377 -4.7515,-5.0869 -7.3788,-12.0184 -2.5713,-6.9874 -2.5713,-15.1488 0,-8.1054 2.5713,-15.0369 2.6273,-6.9874 7.3788,-12.0184 4.7514,-5.0868 11.4034,-7.9377 6.6521,-2.9068 14.7575,-2.9068 8.1054,0 14.7574,2.9068 6.6521,2.8509 11.3476,7.9377 4.7515,5.0869 7.3228,12.0184 2.5714,6.9315 2.5714,15.0369 z m -14.981,0 q 0,-5.9253 -1.4534,-10.6208 -1.4534,-4.6956 -4.1925,-7.9937 -2.6831,-3.298 -6.5961,-5.0309 -3.8571,-1.7888 -8.7762,-1.7888 -4.9192,0 -8.8321,1.7888 -3.913,1.7329 -6.6521,5.0309 -2.6831,3.2981 -4.1365,7.9937 -1.4534,4.6955 -1.4534,10.6208 0,5.9813 1.4534,10.7327 1.4534,4.6956 4.1365,7.9936 2.7391,3.2422 6.6521,4.9751 3.9129,1.7329 8.8321,1.7329 4.9191,0 8.7762,-1.7329 3.913,-1.7329 6.5961,-4.9751 2.7391,-3.298 4.1925,-7.9936 1.4534,-4.7514 1.4534,-10.7327 z m 38.347,25.0989 h 25.7696 v 12.0743 h -40.4712 v -74.2345 h 14.7016 z m 96.9854,12.0743 h -11.2916 q -1.9565,0 -3.1304,-0.8944 -1.1739,-0.9503 -1.7329,-2.3478 l -4.6955,-14.5898 h -27.3348 l -4.6397,14.5339 q -0.4472,1.2298 -1.7329,2.2919 -1.2298,1.0062 -3.0744,1.0062 h -11.4594 l 27.0553,-74.2345 h 14.981 z m -44.8872,-28.1175 h 20.6828 l -7.5464,-23.4777 q -0.6708,-1.7329 -1.3975,-4.0248 -0.7267,-2.3477 -1.4534,-5.0868 -0.6708,2.7391 -1.3975,5.0868 -0.7267,2.3478 -1.3416,4.0807 z m 66.2967,-0.4471 v 28.5646 h -14.7574 v -74.2345 h 22.3598 q 7.4346,0 12.745,1.6211 5.3105,1.5652 8.6644,4.4161 3.4099,2.8508 4.9751,6.8197 1.5652,3.9689 1.5652,8.7203 0,3.6335 -1.0062,6.9315 -1.0062,3.2422 -2.9627,5.9813 -1.9006,2.6831 -4.6955,4.8073 -2.795,2.0683 -6.4285,3.354 1.3975,0.7826 2.6273,1.9006 1.2298,1.0621 2.2919,2.6272 l 16.6021,27.0554 h -13.2482 q -3.5216,0 -5.4222,-2.9627 l -13.5277,-23.1424 q -0.8385,-1.3416 -1.9005,-1.9006 -1.0062,-0.5589 -2.9068,-0.5589 z m 0,-10.4532 h 7.4906 q 3.5775,0 6.1489,-0.9503 2.6273,-0.9503 4.3042,-2.6273 1.677,-1.677 2.4596,-3.9689 0.8385,-2.3477 0.8385,-5.0868 0,-5.4222 -3.354,-8.329 -3.3539,-2.9627 -10.2854,-2.9627 h -7.6024 z"
         id="path2" /></g><path
       style="font-weight:bold;font-size:158.102px;font-family:Carlito;-inkscape-font-specification:'Carlito Bold';text-align:center;letter-spacing:0px;text-anchor:middle;fill:#f3ff62;stroke-width:8.46973;stroke-linecap:round;paint-order:stroke fill markers"
       d="m 1511.0143,1710.4863 v 35.5884 h -20.3032 v -102.5193 h 32.9637 q 9.9586,0 17.138,2.4704 7.1794,2.4703 11.8885,6.8706 4.7091,4.3231 6.9479,10.3446 2.2387,6.0215 2.2387,13.2009 0,7.5654 -2.3931,13.8185 -2.316,6.253 -7.1023,10.7305 -4.7091,4.4775 -11.8885,7.0251 -7.1794,2.4703 -16.8292,2.4703 z m 0,-15.7484 h 12.6605 q 9.2638,0 13.5869,-4.8635 4.3231,-4.9407 4.3231,-13.4325 0,-7.9514 -4.4003,-12.5833 -4.4003,-4.7091 -13.5097,-4.7091 h -12.6605 z m 158.2564,0 q 0,11.2709 -3.5511,20.9207 -3.5512,9.5726 -10.113,16.5976 -6.4847,7.0251 -15.6713,10.9622 -9.1866,3.9371 -20.3803,3.9371 -11.1937,0 -20.3803,-3.9371 -9.1866,-3.9371 -15.7485,-10.9622 -6.5618,-7.025 -10.1901,-16.5976 -3.5512,-9.6498 -3.5512,-20.9207 0,-11.1938 3.5512,-20.7664 3.6283,-9.6497 10.1901,-16.5976 6.5619,-7.025 15.7485,-10.9621 9.1866,-4.0143 20.3803,-4.0143 11.1937,0 20.3803,4.0143 9.1866,3.9371 15.6713,10.9621 6.5618,7.0251 10.113,16.5976 3.5511,9.5726 3.5511,20.7664 z m -20.6892,0 q 0,-8.183 -2.0071,-14.6677 -2.0072,-6.4846 -5.7899,-11.0393 -3.7055,-4.5547 -9.1094,-6.9479 -5.3267,-2.4703 -12.1201,-2.4703 -6.7934,0 -12.1973,2.4703 -5.4039,2.3932 -9.1866,6.9479 -3.7055,4.5547 -5.7127,11.0393 -2.0071,6.4847 -2.0071,14.6677 0,8.2602 2.0071,14.822 2.0072,6.4847 5.7127,11.0394 3.7827,4.4775 9.1866,6.8706 5.4039,2.3932 12.1973,2.3932 6.7934,0 12.1201,-2.3932 5.4039,-2.3931 9.1094,-6.8706 3.7827,-4.5547 5.7899,-11.0394 2.0071,-6.5618 2.0071,-14.822 z m 120.3521,0 q 0,11.2709 -3.5511,20.7663 -3.5511,9.4182 -10.113,16.2116 -6.4846,6.7935 -15.6712,10.5762 -9.1866,3.7827 -20.3804,3.7827 h -37.3639 v -102.5193 h 37.3639 q 11.1938,0 20.3804,3.7828 9.1866,3.7827 15.6712,10.5761 6.5619,6.7935 10.113,16.2116 3.5511,9.4182 3.5511,20.612 z m -20.6119,0 q 0,-8.183 -2.0072,-14.6677 -2.0071,-6.4846 -5.7898,-11.0393 -3.7056,-4.5547 -9.1094,-6.9479 -5.4039,-2.4703 -12.1974,-2.4703 h -16.9836 v 70.3276 h 16.9836 q 6.7935,0 12.1974,-2.3932 5.4038,-2.3931 9.1094,-6.9478 3.7827,-4.5547 5.7898,-11.0394 2.0072,-6.5618 2.0072,-14.822 z m 95.8802,-51.1825 v 16.1345 h -42.1503 v 27.0966 h 32.8093 v 15.5168 h -32.8093 v 27.637 h 42.2275 l -0.077,16.1344 h -62.5306 v -102.5193 z m 34.9708,63.071 v 39.4483 h -20.3803 v -102.5193 h 30.8793 q 10.2673,0 17.6012,2.2388 7.3338,2.1615 11.9657,6.0986 4.7091,3.9372 6.8706,9.4182 2.1616,5.4811 2.1616,12.043 0,5.0178 -1.3896,9.5725 -1.3896,4.4775 -4.0915,8.2603 -2.6247,3.7055 -6.4846,6.639 -3.86,2.8563 -8.8778,4.6319 1.9299,1.0808 3.6283,2.6247 1.6983,1.4668 3.1651,3.6284 l 22.9279,37.3639 h -18.296 q -4.8635,0 -7.4882,-4.0915 l -18.682,-31.9601 q -1.158,-1.8527 -2.6247,-2.6247 -1.3896,-0.772 -4.0144,-0.772 z m 0,-14.4361 h 10.3446 q 4.9407,0 8.4918,-1.3123 3.6283,-1.3124 5.9442,-3.6284 2.316,-2.3159 3.3968,-5.481 1.1579,-3.2424 1.1579,-7.0251 0,-7.4882 -4.6319,-11.5025 -4.6319,-4.0915 -14.2044,-4.0915 h -10.499 z"
       id="text12"
       aria-label="PODER" /></g></svg>
