<?xml version="1.0" encoding="UTF-8" standalone="no"?>
<!-- Created with Inkscape (http://www.inkscape.org/) -->

<svg
   width="800.00006"
   height="600.00006"
   viewBox="0 0 800.00004 600.00006"
   version="1.1"
   id="svg1"
   inkscape:version="1.3 (0e150ed6c4, 2023-07-21)"
   sodipodi:docname="main_menu.svg"
   xml:space="preserve"
   xmlns:inkscape="http://www.inkscape.org/namespaces/inkscape"
   xmlns:sodipodi="http://sodipodi.sourceforge.net/DTD/sodipodi-0.dtd"
   xmlns:xlink="http://www.w3.org/1999/xlink"
   xmlns="http://www.w3.org/2000/svg"
   xmlns:svg="http://www.w3.org/2000/svg"><sodipodi:namedview
     id="namedview1"
     pagecolor="#505050"
     bordercolor="#eeeeee"
     borderopacity="1"
     inkscape:showpageshadow="false"
     inkscape:pageopacity="0"
     inkscape:pagecheckerboard="false"
     inkscape:deskcolor="#505050"
     inkscape:document-units="px"
     labelstyle="default"
     inkscape:zoom="0.20100733"
     inkscape:cx="741.26649"
     inkscape:cy="164.17312"
     inkscape:window-width="1920"
     inkscape:window-height="1017"
     inkscape:window-x="-8"
     inkscape:window-y="-8"
     inkscape:window-maximized="1"
     inkscape:current-layer="layer1" /><defs
     id="defs1"><inkscape:perspective
       sodipodi:type="inkscape:persp3d"
       inkscape:vp_x="195.60992 : 325.56998 : 1"
       inkscape:vp_y="0 : 999.99998 : 0"
       inkscape:vp_z="738.0796 : 238.9989 : 1"
       inkscape:persp3d-origin="399.99999 : 200.00006 : 1"
       id="perspective1" /><linearGradient
       inkscape:collect="always"
       xlink:href="#linearGradient41"
       id="linearGradient69"
       gradientUnits="userSpaceOnUse"
       gradientTransform="matrix(1.5782419,0,0,1.5782419,-1166.6556,1455.0415)"
       x1="1145.194"
       y1="65.542419"
       x2="1145.194"
       y2="434.8027" /><linearGradient
       id="linearGradient41"
       inkscape:collect="always"><stop
         style="stop-color:#2a464c;stop-opacity:1;"
         offset="0"
         id="stop41" /><stop
         style="stop-color:#2f553c;stop-opacity:1;"
         offset="1"
         id="stop42" /></linearGradient><filter
       inkscape:collect="always"
       style="color-interpolation-filters:sRGB"
       id="filter70-03-15-8-7-5"
       x="-0.13101054"
       y="-0.30375617"
       width="1.2620211"
       height="1.6075123"><feGaussianBlur
         inkscape:collect="always"
         stdDeviation="2.5113902"
         id="feGaussianBlur70-4-8-7-3-7" /></filter><filter
       inkscape:collect="always"
       style="color-interpolation-filters:sRGB"
       id="filter70-03-1-3"
       x="-0.13101054"
       y="-0.30375617"
       width="1.2620211"
       height="1.6075123"><feGaussianBlur
         inkscape:collect="always"
         stdDeviation="2.5113902"
         id="feGaussianBlur70-4-0-6" /></filter><filter
       inkscape:collect="always"
       style="color-interpolation-filters:sRGB"
       id="filter70-03-15-8"
       x="-0.13101054"
       y="-0.30375617"
       width="1.2620211"
       height="1.6075123"><feGaussianBlur
         inkscape:collect="always"
         stdDeviation="2.5113902"
         id="feGaussianBlur70-4-8-7" /></filter><filter
       inkscape:collect="always"
       style="color-interpolation-filters:sRGB"
       id="filter70-03-15-8-7"
       x="-0.13101054"
       y="-0.30375617"
       width="1.2620211"
       height="1.6075123"><feGaussianBlur
         inkscape:collect="always"
         stdDeviation="2.5113902"
         id="feGaussianBlur70-4-8-7-3" /></filter></defs><g
     inkscape:label="Layer 1"
     inkscape:groupmode="layer"
     id="layer1"
     transform="translate(-410.7112,-1486.3975)"><rect
       style="fill:#213b4c;fill-opacity:1;stroke:none;stroke-width:20;stroke-linecap:round;stroke-dasharray:none;stroke-opacity:1;paint-order:stroke fill markers"
       id="rect69"
       width="800"
       height="600"
       x="410.71124"
       y="1486.3975" /><path
       style="fill:url(#linearGradient69);fill-opacity:1;stroke:none;stroke-width:7.89121;stroke-linejoin:round;stroke-dasharray:none;stroke-opacity:1;paint-order:stroke fill markers"
       d="m 410.7112,1646.9438 149.7547,-88.4605 201.0809,84.8936 141.347,-71.3392 204.7435,86.3204 103.0739,-56.9348 v 484.9742 h -800 z"
       id="path27-53-1"
       sodipodi:nodetypes="ccccccccc" /><circle
       style="fill:#192d3a;fill-opacity:1;stroke:none;stroke-width:5;stroke-linejoin:round;stroke-dasharray:none;stroke-opacity:1;paint-order:stroke fill markers"
       id="path26-1-6-55-4"
       cx="1118.1499"
       cy="1558.0822"
       r="30.68391" /><path
       id="path26-6-2"
       style="fill:#194661;fill-opacity:1;stroke:none;stroke-width:5;stroke-linejoin:round;stroke-dasharray:none;stroke-opacity:1;paint-order:stroke fill markers"
       d="m 1118.1493,1527.3975 a 30.68391,30.68391 0 0 0 -3.0664,0.209 46.405415,46.405415 0 0 1 11.4277,30.4766 46.405415,46.405415 0 0 1 -0.049,0.6835 30.68391,30.68391 0 0 1 -0.2481,3.4532 46.405415,46.405415 0 0 1 -11.123,26.3359 30.68391,30.68391 0 0 0 3.0586,0.2109 30.68391,30.68391 0 0 0 30.6836,-30.6835 30.68391,30.68391 0 0 0 -30.6836,-30.6856 z" /><ellipse
       style="fill:#174059;fill-opacity:1;stroke:none;stroke-width:20.1831;stroke-linecap:round;stroke-dasharray:none;stroke-opacity:1;paint-order:stroke fill markers"
       id="path67-5"
       cx="1155.0671"
       cy="1322.6338"
       rx="6.0428462"
       ry="5.9337187"
       transform="matrix(0.98194101,0.18918736,0,1,0,0)" /><ellipse
       style="fill:#174059;fill-opacity:1;stroke:none;stroke-width:22.7759;stroke-linecap:round;stroke-dasharray:none;stroke-opacity:1;paint-order:stroke fill markers"
       id="path67-9-4"
       cx="1147.4584"
       cy="1689.6421"
       rx="6.4740162"
       ry="7.0528827"
       transform="matrix(0.99377551,-0.11140124,0,1,0,0)" /><ellipse
       style="fill:#174059;fill-opacity:1;stroke:none;stroke-width:14.1329;stroke-linecap:round;stroke-dasharray:none;stroke-opacity:1;paint-order:stroke fill markers"
       id="path67-9-2-7"
       cx="1449.3776"
       cy="1761.9406"
       rx="4.066545"
       ry="4.323431"
       transform="matrix(0.99425943,-0.1069962,-0.1772499,0.98416588,0,0)" /><ellipse
       style="fill:#174059;fill-opacity:1;stroke:none;stroke-width:13.1115;stroke-linecap:round;stroke-dasharray:none;stroke-opacity:1;paint-order:stroke fill markers"
       id="path67-9-6-2"
       cx="1136.0618"
       cy="1453.7345"
       rx="3.8973744"
       ry="3.8825951"
       transform="matrix(0.99620785,0.08700529,0,1,0,0)" /><g
       id="g70-2-5-3-0"
       transform="matrix(-2.4054819,0,0,2.3998337,4638.2227,966.20504)"
       style="stroke-width:0.826772"><path
         style="fill:#192e20;fill-opacity:1;stroke-width:3.30707;stroke-linecap:round;paint-order:stroke fill markers;filter:url(#filter70-03-15-8-7)"
         d="m 1705.0413,344.41615 13.9614,10.16869 32.0451,-10.16869 -19.0732,-9.67399 z"
         id="path70-9-7-5-2"
         sodipodi:nodetypes="ccccc" /><path
         style="fill:#533124;fill-opacity:1;stroke:none;stroke-width:4.13385;stroke-linejoin:round;stroke-dasharray:none;stroke-opacity:1;paint-order:stroke fill markers"
         d="m 1750.1666,343.92285 -30.4858,8.94643 -12.3543,-8.94643 v -18.94958 l 12.2047,4.93193 31.1183,-5.97918 z"
         id="path28-23-2-3-4-5"
         sodipodi:nodetypes="ccccccc" /><path
         style="fill:#4c2d21;fill-opacity:1;stroke-width:3.30707;stroke-linecap:round;paint-order:stroke fill markers"
         d="m 1706.9562,324.8218 12.575,5.0834 0.1496,22.96408 -12.3543,-8.94643 z"
         id="path1-03-6-7-0"
         sodipodi:nodetypes="ccccc" /><path
         style="fill:#422317;fill-opacity:1;stroke:none;stroke-width:4.13385;stroke-linejoin:round;stroke-dasharray:none;stroke-opacity:1;paint-order:stroke fill markers"
         d="m 1710.3309,346.0985 -0.3417,-13.57156 5.8103,3.23193 -0.4193,13.99611 z"
         id="path30-46-7-9-2-9"
         sodipodi:nodetypes="ccccc" /><ellipse
         style="fill:#aaa03c;fill-opacity:1;stroke:none;stroke-width:4.13385;stroke-linejoin:round;stroke-dasharray:none;stroke-opacity:1;paint-order:stroke fill markers"
         id="path31-385-21-5-4-6"
         cx="1730.0118"
         cy="338.32599"
         rx="3.106657"
         ry="3.6232164" /><ellipse
         style="fill:#aaa03c;fill-opacity:1;stroke:none;stroke-width:4.13385;stroke-linejoin:round;stroke-dasharray:none;stroke-opacity:1;paint-order:stroke fill markers"
         id="path31-4-2-4-5-3-7"
         cx="1744.5804"
         cy="335.99405"
         rx="2.2721579"
         ry="2.6499612" /><path
         style="fill:#544127;fill-opacity:1;stroke:none;stroke-width:4.13385;stroke-linejoin:round;stroke-dasharray:none;stroke-opacity:1;paint-order:stroke fill markers"
         d="m 1720.9184,335.967 34.1729,-8.12959 -9.3476,-17.50939 -32.7482,4.69825 z"
         id="path29-11-5-1-9-2"
         sodipodi:nodetypes="ccccc" /><g
         id="g68-6-36-4-8"
         transform="translate(-145.39152,9.5478812)"
         style="stroke-width:0.826772"><path
           style="fill:#444650;fill-opacity:1;stroke-width:3.30707;stroke-linecap:round;paint-order:stroke fill markers"
           d="m 1867.2928,321.78719 -0.1649,0.7283 14.1811,-3.46285 0.1649,-0.7283 z"
           id="path2-5-0-5-4-7"
           sodipodi:nodetypes="ccccc" /><path
           style="fill:#3c3d46;fill-opacity:1;stroke-width:3.30707;stroke-linecap:round;paint-order:stroke fill markers"
           d="m 1859.5426,304.63784 -0.1649,0.7283 7.7502,17.14935 0.1649,-0.7283 z"
           id="path2-5-2-1-8-4-7"
           sodipodi:nodetypes="ccccc" /><path
           style="fill:#4c4f5a;fill-opacity:1;stroke-width:3.30707;stroke-linecap:round;paint-order:stroke fill markers"
           d="m 1859.5426,304.63784 7.7502,17.14935 14.1811,-3.46285 -9.509,-15.83017 z"
           id="path2-9-7-4-8" /><path
           style="fill:#26335e;fill-opacity:1;stroke-width:3.30707;stroke-linecap:round;paint-order:stroke fill markers"
           d="m 1863.7974,312.25727 4.0008,8.67331 12.6913,-3.03485 -4.7327,-7.68795 z"
           id="path2-8-54-2-6-3"
           sodipodi:nodetypes="ccccc" /><path
           style="fill:#26335e;fill-opacity:1;stroke-width:3.30707;stroke-linecap:round;paint-order:stroke fill markers"
           d="m 1860.6341,305.17084 2.9404,6.61054 11.9082,-2.19661 -3.8579,-6.39506 z"
           id="path2-8-6-7-45-9-7"
           sodipodi:nodetypes="ccccc" /><path
           style="fill:#283a75;fill-opacity:1;stroke-width:3.30707;stroke-linecap:round;paint-order:stroke fill markers"
           d="m 1860.6341,305.17084 10.9907,-1.98113 1.2005,1.99005 -11.264,2.07562 z"
           id="path65-5-3-2-9" /><path
           style="fill:#283a75;fill-opacity:1;stroke-width:3.30707;stroke-linecap:round;paint-order:stroke fill markers"
           d="m 1862.1043,308.47611 11.4495,-2.08887 1.0435,1.7299 -11.568,2.43843 z"
           id="path65-1-6-7-2-1"
           sodipodi:nodetypes="ccccc" /><path
           style="fill:#283a75;fill-opacity:1;stroke-width:3.30707;stroke-linecap:round;paint-order:stroke fill markers"
           d="m 1863.7974,312.25727 11.9594,-2.04949 1.5586,2.53182 -12.1707,2.43847 z"
           id="path65-4-5-7-6-0"
           sodipodi:nodetypes="ccccc" /><path
           style="fill:#283a75;fill-opacity:1;stroke-width:3.30707;stroke-linecap:round;paint-order:stroke fill markers"
           d="m 1865.9417,316.90599 12.334,-2.60636 1.2609,2.05277 -12.5986,2.71326 z"
           id="path65-1-7-6-1-0-3"
           sodipodi:nodetypes="ccccc" /></g><g
         id="g68-7-2-36-9-2"
         transform="matrix(0.9670556,0,0,0.9670556,-67.376784,16.651309)"
         style="stroke-width:0.854939"><path
           style="fill:#444650;fill-opacity:1;stroke-width:3.41974;stroke-linecap:round;paint-order:stroke fill markers"
           d="m 1867.2928,321.78719 -0.1649,0.7283 14.1811,-3.46285 0.1649,-0.7283 z"
           id="path2-5-1-8-0-0-0"
           sodipodi:nodetypes="ccccc" /><path
           style="fill:#3c3d46;fill-opacity:1;stroke-width:3.41974;stroke-linecap:round;paint-order:stroke fill markers"
           d="m 1859.5426,304.63784 -0.1649,0.7283 7.7502,17.14935 0.1649,-0.7283 z"
           id="path2-5-2-3-31-5-0-5"
           sodipodi:nodetypes="ccccc" /><path
           style="fill:#4c4f5a;fill-opacity:1;stroke-width:3.41974;stroke-linecap:round;paint-order:stroke fill markers"
           d="m 1859.5426,304.63784 7.7502,17.14935 14.1811,-3.46285 -9.509,-15.83017 z"
           id="path2-0-0-6-2-6" /><path
           style="fill:#26335e;fill-opacity:1;stroke-width:3.41974;stroke-linecap:round;paint-order:stroke fill markers"
           d="m 1863.7974,312.25727 4.0008,8.67331 12.6913,-3.03485 -4.7327,-7.68795 z"
           id="path2-8-1-7-08-5-2"
           sodipodi:nodetypes="ccccc" /><path
           style="fill:#26335e;fill-opacity:1;stroke-width:3.41974;stroke-linecap:round;paint-order:stroke fill markers"
           d="m 1860.6341,305.17084 2.9404,6.61054 11.9082,-2.19661 -3.8579,-6.39506 z"
           id="path2-8-6-1-0-95-7-2"
           sodipodi:nodetypes="ccccc" /><path
           style="fill:#283a75;fill-opacity:1;stroke-width:3.41974;stroke-linecap:round;paint-order:stroke fill markers"
           d="m 1860.6341,305.17084 10.9907,-1.98113 1.2005,1.99005 -11.264,2.07562 z"
           id="path65-2-9-11-7-1" /><path
           style="fill:#283a75;fill-opacity:1;stroke-width:3.41974;stroke-linecap:round;paint-order:stroke fill markers"
           d="m 1862.1043,308.47611 11.4495,-2.08887 1.0435,1.7299 -11.568,2.43843 z"
           id="path65-1-2-9-32-9-3"
           sodipodi:nodetypes="ccccc" /><path
           style="fill:#283a75;fill-opacity:1;stroke-width:3.41974;stroke-linecap:round;paint-order:stroke fill markers"
           d="m 1863.7974,312.25727 11.9594,-2.04949 1.5586,2.53182 -12.1707,2.43847 z"
           id="path65-4-8-2-0-3-0"
           sodipodi:nodetypes="ccccc" /><path
           style="fill:#283a75;fill-opacity:1;stroke-width:3.41974;stroke-linecap:round;paint-order:stroke fill markers"
           d="m 1865.9417,316.90599 12.334,-2.60636 1.2609,2.05277 -12.5986,2.71326 z"
           id="path65-1-7-1-6-7-8-1"
           sodipodi:nodetypes="ccccc" /></g><path
         style="fill:#4a3923;fill-opacity:1;stroke-width:3.30707;stroke-linecap:round;paint-order:stroke fill markers"
         d="m 1712.9955,315.02627 7.9229,20.94073 -17.5616,-9.53375 z"
         id="path66-9-5-5-0"
         sodipodi:nodetypes="cccc" /></g><g
       id="g70-2-5-3"
       transform="matrix(-2.4054819,0,0,2.3998337,4592.3485,1029.5371)"
       style="stroke-width:0.826772"><path
         style="fill:#192e20;fill-opacity:1;stroke-width:3.30707;stroke-linecap:round;paint-order:stroke fill markers;filter:url(#filter70-03-15-8)"
         d="m 1705.0413,344.41615 13.9614,10.16869 32.0451,-10.16869 -19.0732,-9.67399 z"
         id="path70-9-7-5"
         sodipodi:nodetypes="ccccc" /><path
         style="fill:#533124;fill-opacity:1;stroke:none;stroke-width:4.13385;stroke-linejoin:round;stroke-dasharray:none;stroke-opacity:1;paint-order:stroke fill markers"
         d="m 1750.1666,343.92285 -30.4858,8.94643 -12.3543,-8.94643 v -18.94958 l 12.2047,4.93193 31.1183,-5.97918 z"
         id="path28-23-2-3-4"
         sodipodi:nodetypes="ccccccc" /><path
         style="fill:#4c2d21;fill-opacity:1;stroke-width:3.30707;stroke-linecap:round;paint-order:stroke fill markers"
         d="m 1706.9562,324.8218 12.575,5.0834 0.1496,22.96408 -12.3543,-8.94643 z"
         id="path1-03-6-7"
         sodipodi:nodetypes="ccccc" /><path
         style="fill:#422317;fill-opacity:1;stroke:none;stroke-width:4.13385;stroke-linejoin:round;stroke-dasharray:none;stroke-opacity:1;paint-order:stroke fill markers"
         d="m 1710.3309,346.0985 -0.3417,-13.57156 5.8103,3.23193 -0.4193,13.99611 z"
         id="path30-46-7-9-2"
         sodipodi:nodetypes="ccccc" /><ellipse
         style="fill:#aaa03c;fill-opacity:1;stroke:none;stroke-width:4.13385;stroke-linejoin:round;stroke-dasharray:none;stroke-opacity:1;paint-order:stroke fill markers"
         id="path31-385-21-5-4"
         cx="1730.0118"
         cy="338.32599"
         rx="3.106657"
         ry="3.6232164" /><ellipse
         style="fill:#aaa03c;fill-opacity:1;stroke:none;stroke-width:4.13385;stroke-linejoin:round;stroke-dasharray:none;stroke-opacity:1;paint-order:stroke fill markers"
         id="path31-4-2-4-5-3"
         cx="1744.5804"
         cy="335.99405"
         rx="2.2721579"
         ry="2.6499612" /><path
         style="fill:#544127;fill-opacity:1;stroke:none;stroke-width:4.13385;stroke-linejoin:round;stroke-dasharray:none;stroke-opacity:1;paint-order:stroke fill markers"
         d="m 1720.9184,335.967 34.1729,-8.12959 -9.3476,-17.50939 -32.7482,4.69825 z"
         id="path29-11-5-1-9"
         sodipodi:nodetypes="ccccc" /><g
         id="g68-6-36-4"
         transform="translate(-145.39152,9.5478812)"
         style="stroke-width:0.826772"><path
           style="fill:#444650;fill-opacity:1;stroke-width:3.30707;stroke-linecap:round;paint-order:stroke fill markers"
           d="m 1867.2928,321.78719 -0.1649,0.7283 14.1811,-3.46285 0.1649,-0.7283 z"
           id="path2-5-0-5-4"
           sodipodi:nodetypes="ccccc" /><path
           style="fill:#3c3d46;fill-opacity:1;stroke-width:3.30707;stroke-linecap:round;paint-order:stroke fill markers"
           d="m 1859.5426,304.63784 -0.1649,0.7283 7.7502,17.14935 0.1649,-0.7283 z"
           id="path2-5-2-1-8-4"
           sodipodi:nodetypes="ccccc" /><path
           style="fill:#4c4f5a;fill-opacity:1;stroke-width:3.30707;stroke-linecap:round;paint-order:stroke fill markers"
           d="m 1859.5426,304.63784 7.7502,17.14935 14.1811,-3.46285 -9.509,-15.83017 z"
           id="path2-9-7-4" /><path
           style="fill:#26335e;fill-opacity:1;stroke-width:3.30707;stroke-linecap:round;paint-order:stroke fill markers"
           d="m 1863.7974,312.25727 4.0008,8.67331 12.6913,-3.03485 -4.7327,-7.68795 z"
           id="path2-8-54-2-6"
           sodipodi:nodetypes="ccccc" /><path
           style="fill:#26335e;fill-opacity:1;stroke-width:3.30707;stroke-linecap:round;paint-order:stroke fill markers"
           d="m 1860.6341,305.17084 2.9404,6.61054 11.9082,-2.19661 -3.8579,-6.39506 z"
           id="path2-8-6-7-45-9"
           sodipodi:nodetypes="ccccc" /><path
           style="fill:#283a75;fill-opacity:1;stroke-width:3.30707;stroke-linecap:round;paint-order:stroke fill markers"
           d="m 1860.6341,305.17084 10.9907,-1.98113 1.2005,1.99005 -11.264,2.07562 z"
           id="path65-5-3-2" /><path
           style="fill:#283a75;fill-opacity:1;stroke-width:3.30707;stroke-linecap:round;paint-order:stroke fill markers"
           d="m 1862.1043,308.47611 11.4495,-2.08887 1.0435,1.7299 -11.568,2.43843 z"
           id="path65-1-6-7-2"
           sodipodi:nodetypes="ccccc" /><path
           style="fill:#283a75;fill-opacity:1;stroke-width:3.30707;stroke-linecap:round;paint-order:stroke fill markers"
           d="m 1863.7974,312.25727 11.9594,-2.04949 1.5586,2.53182 -12.1707,2.43847 z"
           id="path65-4-5-7-6"
           sodipodi:nodetypes="ccccc" /><path
           style="fill:#283a75;fill-opacity:1;stroke-width:3.30707;stroke-linecap:round;paint-order:stroke fill markers"
           d="m 1865.9417,316.90599 12.334,-2.60636 1.2609,2.05277 -12.5986,2.71326 z"
           id="path65-1-7-6-1-0"
           sodipodi:nodetypes="ccccc" /></g><g
         id="g68-7-2-36-9"
         transform="matrix(0.9670556,0,0,0.9670556,-67.376784,16.651309)"
         style="stroke-width:0.854939"><path
           style="fill:#444650;fill-opacity:1;stroke-width:3.41974;stroke-linecap:round;paint-order:stroke fill markers"
           d="m 1867.2928,321.78719 -0.1649,0.7283 14.1811,-3.46285 0.1649,-0.7283 z"
           id="path2-5-1-8-0-0"
           sodipodi:nodetypes="ccccc" /><path
           style="fill:#3c3d46;fill-opacity:1;stroke-width:3.41974;stroke-linecap:round;paint-order:stroke fill markers"
           d="m 1859.5426,304.63784 -0.1649,0.7283 7.7502,17.14935 0.1649,-0.7283 z"
           id="path2-5-2-3-31-5-0"
           sodipodi:nodetypes="ccccc" /><path
           style="fill:#4c4f5a;fill-opacity:1;stroke-width:3.41974;stroke-linecap:round;paint-order:stroke fill markers"
           d="m 1859.5426,304.63784 7.7502,17.14935 14.1811,-3.46285 -9.509,-15.83017 z"
           id="path2-0-0-6-2" /><path
           style="fill:#26335e;fill-opacity:1;stroke-width:3.41974;stroke-linecap:round;paint-order:stroke fill markers"
           d="m 1863.7974,312.25727 4.0008,8.67331 12.6913,-3.03485 -4.7327,-7.68795 z"
           id="path2-8-1-7-08-5"
           sodipodi:nodetypes="ccccc" /><path
           style="fill:#26335e;fill-opacity:1;stroke-width:3.41974;stroke-linecap:round;paint-order:stroke fill markers"
           d="m 1860.6341,305.17084 2.9404,6.61054 11.9082,-2.19661 -3.8579,-6.39506 z"
           id="path2-8-6-1-0-95-7"
           sodipodi:nodetypes="ccccc" /><path
           style="fill:#283a75;fill-opacity:1;stroke-width:3.41974;stroke-linecap:round;paint-order:stroke fill markers"
           d="m 1860.6341,305.17084 10.9907,-1.98113 1.2005,1.99005 -11.264,2.07562 z"
           id="path65-2-9-11-7" /><path
           style="fill:#283a75;fill-opacity:1;stroke-width:3.41974;stroke-linecap:round;paint-order:stroke fill markers"
           d="m 1862.1043,308.47611 11.4495,-2.08887 1.0435,1.7299 -11.568,2.43843 z"
           id="path65-1-2-9-32-9"
           sodipodi:nodetypes="ccccc" /><path
           style="fill:#283a75;fill-opacity:1;stroke-width:3.41974;stroke-linecap:round;paint-order:stroke fill markers"
           d="m 1863.7974,312.25727 11.9594,-2.04949 1.5586,2.53182 -12.1707,2.43847 z"
           id="path65-4-8-2-0-3"
           sodipodi:nodetypes="ccccc" /><path
           style="fill:#283a75;fill-opacity:1;stroke-width:3.41974;stroke-linecap:round;paint-order:stroke fill markers"
           d="m 1865.9417,316.90599 12.334,-2.60636 1.2609,2.05277 -12.5986,2.71326 z"
           id="path65-1-7-1-6-7-8"
           sodipodi:nodetypes="ccccc" /></g><path
         style="fill:#4a3923;fill-opacity:1;stroke-width:3.30707;stroke-linecap:round;paint-order:stroke fill markers"
         d="m 1712.9955,315.02627 7.9229,20.94073 -17.5616,-9.53375 z"
         id="path66-9-5-5"
         sodipodi:nodetypes="cccc" /></g><g
       id="g70-2-78-6"
       transform="matrix(-2.4054819,0,0,2.3998337,4681.8252,1052.7928)"
       style="stroke-width:0.826772"><path
         style="fill:#192e20;fill-opacity:1;stroke-width:3.30707;stroke-linecap:round;paint-order:stroke fill markers;filter:url(#filter70-03-1-3)"
         d="m 1705.0413,344.41615 13.9614,10.16869 32.0451,-10.16869 -19.0732,-9.67399 z"
         id="path70-9-0-5"
         sodipodi:nodetypes="ccccc" /><path
         style="fill:#533124;fill-opacity:1;stroke:none;stroke-width:4.13385;stroke-linejoin:round;stroke-dasharray:none;stroke-opacity:1;paint-order:stroke fill markers"
         d="m 1750.1666,343.92285 -30.4858,8.94643 -12.3543,-8.94643 v -18.94958 l 12.2047,4.93193 31.1183,-5.97918 z"
         id="path28-23-2-2-4"
         sodipodi:nodetypes="ccccccc" /><path
         style="fill:#4c2d21;fill-opacity:1;stroke-width:3.30707;stroke-linecap:round;paint-order:stroke fill markers"
         d="m 1706.9562,324.8218 12.575,5.0834 0.1496,22.96408 -12.3543,-8.94643 z"
         id="path1-03-2-9"
         sodipodi:nodetypes="ccccc" /><path
         style="fill:#422317;fill-opacity:1;stroke:none;stroke-width:4.13385;stroke-linejoin:round;stroke-dasharray:none;stroke-opacity:1;paint-order:stroke fill markers"
         d="m 1710.3309,346.0985 -0.3417,-13.57156 5.8103,3.23193 -0.4193,13.99611 z"
         id="path30-46-7-5-5"
         sodipodi:nodetypes="ccccc" /><ellipse
         style="fill:#aaa03c;fill-opacity:1;stroke:none;stroke-width:4.13385;stroke-linejoin:round;stroke-dasharray:none;stroke-opacity:1;paint-order:stroke fill markers"
         id="path31-385-21-3-3"
         cx="1730.0118"
         cy="338.32599"
         rx="3.106657"
         ry="3.6232164" /><ellipse
         style="fill:#aaa03c;fill-opacity:1;stroke:none;stroke-width:4.13385;stroke-linejoin:round;stroke-dasharray:none;stroke-opacity:1;paint-order:stroke fill markers"
         id="path31-4-2-4-2-7"
         cx="1744.5804"
         cy="335.99405"
         rx="2.2721579"
         ry="2.6499612" /><path
         style="fill:#544127;fill-opacity:1;stroke:none;stroke-width:4.13385;stroke-linejoin:round;stroke-dasharray:none;stroke-opacity:1;paint-order:stroke fill markers"
         d="m 1720.9184,335.967 34.1729,-8.12959 -9.3476,-17.50939 -32.7482,4.69825 z"
         id="path29-11-5-7-5"
         sodipodi:nodetypes="ccccc" /><g
         id="g68-6-5-7"
         transform="translate(-145.39152,9.5478812)"
         style="stroke-width:0.826772"><path
           style="fill:#444650;fill-opacity:1;stroke-width:3.30707;stroke-linecap:round;paint-order:stroke fill markers"
           d="m 1867.2928,321.78719 -0.1649,0.7283 14.1811,-3.46285 0.1649,-0.7283 z"
           id="path2-5-0-9-5"
           sodipodi:nodetypes="ccccc" /><path
           style="fill:#3c3d46;fill-opacity:1;stroke-width:3.30707;stroke-linecap:round;paint-order:stroke fill markers"
           d="m 1859.5426,304.63784 -0.1649,0.7283 7.7502,17.14935 0.1649,-0.7283 z"
           id="path2-5-2-1-2-0"
           sodipodi:nodetypes="ccccc" /><path
           style="fill:#4c4f5a;fill-opacity:1;stroke-width:3.30707;stroke-linecap:round;paint-order:stroke fill markers"
           d="m 1859.5426,304.63784 7.7502,17.14935 14.1811,-3.46285 -9.509,-15.83017 z"
           id="path2-9-1-1" /><path
           style="fill:#26335e;fill-opacity:1;stroke-width:3.30707;stroke-linecap:round;paint-order:stroke fill markers"
           d="m 1863.7974,312.25727 4.0008,8.67331 12.6913,-3.03485 -4.7327,-7.68795 z"
           id="path2-8-54-6-8"
           sodipodi:nodetypes="ccccc" /><path
           style="fill:#26335e;fill-opacity:1;stroke-width:3.30707;stroke-linecap:round;paint-order:stroke fill markers"
           d="m 1860.6341,305.17084 2.9404,6.61054 11.9082,-2.19661 -3.8579,-6.39506 z"
           id="path2-8-6-7-7-0"
           sodipodi:nodetypes="ccccc" /><path
           style="fill:#283a75;fill-opacity:1;stroke-width:3.30707;stroke-linecap:round;paint-order:stroke fill markers"
           d="m 1860.6341,305.17084 10.9907,-1.98113 1.2005,1.99005 -11.264,2.07562 z"
           id="path65-5-8-0" /><path
           style="fill:#283a75;fill-opacity:1;stroke-width:3.30707;stroke-linecap:round;paint-order:stroke fill markers"
           d="m 1862.1043,308.47611 11.4495,-2.08887 1.0435,1.7299 -11.568,2.43843 z"
           id="path65-1-6-4-05"
           sodipodi:nodetypes="ccccc" /><path
           style="fill:#283a75;fill-opacity:1;stroke-width:3.30707;stroke-linecap:round;paint-order:stroke fill markers"
           d="m 1863.7974,312.25727 11.9594,-2.04949 1.5586,2.53182 -12.1707,2.43847 z"
           id="path65-4-5-6-2"
           sodipodi:nodetypes="ccccc" /><path
           style="fill:#283a75;fill-opacity:1;stroke-width:3.30707;stroke-linecap:round;paint-order:stroke fill markers"
           d="m 1865.9417,316.90599 12.334,-2.60636 1.2609,2.05277 -12.5986,2.71326 z"
           id="path65-1-7-6-8-4"
           sodipodi:nodetypes="ccccc" /></g><g
         id="g68-7-2-3-66"
         transform="matrix(0.9670556,0,0,0.9670556,-67.376784,16.651309)"
         style="stroke-width:0.854939"><path
           style="fill:#444650;fill-opacity:1;stroke-width:3.41974;stroke-linecap:round;paint-order:stroke fill markers"
           d="m 1867.2928,321.78719 -0.1649,0.7283 14.1811,-3.46285 0.1649,-0.7283 z"
           id="path2-5-1-8-2-85"
           sodipodi:nodetypes="ccccc" /><path
           style="fill:#3c3d46;fill-opacity:1;stroke-width:3.41974;stroke-linecap:round;paint-order:stroke fill markers"
           d="m 1859.5426,304.63784 -0.1649,0.7283 7.7502,17.14935 0.1649,-0.7283 z"
           id="path2-5-2-3-31-6-4"
           sodipodi:nodetypes="ccccc" /><path
           style="fill:#4c4f5a;fill-opacity:1;stroke-width:3.41974;stroke-linecap:round;paint-order:stroke fill markers"
           d="m 1859.5426,304.63784 7.7502,17.14935 14.1811,-3.46285 -9.509,-15.83017 z"
           id="path2-0-0-0-3" /><path
           style="fill:#26335e;fill-opacity:1;stroke-width:3.41974;stroke-linecap:round;paint-order:stroke fill markers"
           d="m 1863.7974,312.25727 4.0008,8.67331 12.6913,-3.03485 -4.7327,-7.68795 z"
           id="path2-8-1-7-3-5"
           sodipodi:nodetypes="ccccc" /><path
           style="fill:#26335e;fill-opacity:1;stroke-width:3.41974;stroke-linecap:round;paint-order:stroke fill markers"
           d="m 1860.6341,305.17084 2.9404,6.61054 11.9082,-2.19661 -3.8579,-6.39506 z"
           id="path2-8-6-1-0-9-23"
           sodipodi:nodetypes="ccccc" /><path
           style="fill:#283a75;fill-opacity:1;stroke-width:3.41974;stroke-linecap:round;paint-order:stroke fill markers"
           d="m 1860.6341,305.17084 10.9907,-1.98113 1.2005,1.99005 -11.264,2.07562 z"
           id="path65-2-9-1-7" /><path
           style="fill:#283a75;fill-opacity:1;stroke-width:3.41974;stroke-linecap:round;paint-order:stroke fill markers"
           d="m 1862.1043,308.47611 11.4495,-2.08887 1.0435,1.7299 -11.568,2.43843 z"
           id="path65-1-2-9-3-7"
           sodipodi:nodetypes="ccccc" /><path
           style="fill:#283a75;fill-opacity:1;stroke-width:3.41974;stroke-linecap:round;paint-order:stroke fill markers"
           d="m 1863.7974,312.25727 11.9594,-2.04949 1.5586,2.53182 -12.1707,2.43847 z"
           id="path65-4-8-2-9-5"
           sodipodi:nodetypes="ccccc" /><path
           style="fill:#283a75;fill-opacity:1;stroke-width:3.41974;stroke-linecap:round;paint-order:stroke fill markers"
           d="m 1865.9417,316.90599 12.334,-2.60636 1.2609,2.05277 -12.5986,2.71326 z"
           id="path65-1-7-1-6-0-3"
           sodipodi:nodetypes="ccccc" /></g><path
         style="fill:#4a3923;fill-opacity:1;stroke-width:3.30707;stroke-linecap:round;paint-order:stroke fill markers"
         d="m 1712.9955,315.02627 7.9229,20.94073 -17.5616,-9.53375 z"
         id="path66-9-2-6"
         sodipodi:nodetypes="cccc" /></g><g
       id="g70-2-5-3-0-0"
       transform="matrix(-2.4054819,0,0,2.3998337,4621.3088,1100.9252)"
       style="stroke-width:0.826772"><path
         style="fill:#192e20;fill-opacity:1;stroke-width:3.30707;stroke-linecap:round;paint-order:stroke fill markers;filter:url(#filter70-03-15-8-7-5)"
         d="m 1705.0413,344.41615 13.9614,10.16869 32.0451,-10.16869 -19.0732,-9.67399 z"
         id="path70-9-7-5-2-1"
         sodipodi:nodetypes="ccccc" /><path
         style="fill:#533124;fill-opacity:1;stroke:none;stroke-width:4.13385;stroke-linejoin:round;stroke-dasharray:none;stroke-opacity:1;paint-order:stroke fill markers"
         d="m 1750.1666,343.92285 -30.4858,8.94643 -12.3543,-8.94643 v -18.94958 l 12.2047,4.93193 31.1183,-5.97918 z"
         id="path28-23-2-3-4-5-2"
         sodipodi:nodetypes="ccccccc" /><path
         style="fill:#4c2d21;fill-opacity:1;stroke-width:3.30707;stroke-linecap:round;paint-order:stroke fill markers"
         d="m 1706.9562,324.8218 12.575,5.0834 0.1496,22.96408 -12.3543,-8.94643 z"
         id="path1-03-6-7-0-1"
         sodipodi:nodetypes="ccccc" /><path
         style="fill:#422317;fill-opacity:1;stroke:none;stroke-width:4.13385;stroke-linejoin:round;stroke-dasharray:none;stroke-opacity:1;paint-order:stroke fill markers"
         d="m 1710.3309,346.0985 -0.3417,-13.57156 5.8103,3.23193 -0.4193,13.99611 z"
         id="path30-46-7-9-2-9-9"
         sodipodi:nodetypes="ccccc" /><ellipse
         style="fill:#aaa03c;fill-opacity:1;stroke:none;stroke-width:4.13385;stroke-linejoin:round;stroke-dasharray:none;stroke-opacity:1;paint-order:stroke fill markers"
         id="path31-385-21-5-4-6-9"
         cx="1730.0118"
         cy="338.32599"
         rx="3.106657"
         ry="3.6232164" /><ellipse
         style="fill:#aaa03c;fill-opacity:1;stroke:none;stroke-width:4.13385;stroke-linejoin:round;stroke-dasharray:none;stroke-opacity:1;paint-order:stroke fill markers"
         id="path31-4-2-4-5-3-7-9"
         cx="1744.5804"
         cy="335.99405"
         rx="2.2721579"
         ry="2.6499612" /><path
         style="fill:#544127;fill-opacity:1;stroke:none;stroke-width:4.13385;stroke-linejoin:round;stroke-dasharray:none;stroke-opacity:1;paint-order:stroke fill markers"
         d="m 1720.9184,335.967 34.1729,-8.12959 -9.3476,-17.50939 -32.7482,4.69825 z"
         id="path29-11-5-1-9-2-2"
         sodipodi:nodetypes="ccccc" /><g
         id="g68-6-36-4-8-7"
         transform="translate(-145.39152,9.5478812)"
         style="stroke-width:0.826772"><path
           style="fill:#444650;fill-opacity:1;stroke-width:3.30707;stroke-linecap:round;paint-order:stroke fill markers"
           d="m 1867.2928,321.78719 -0.1649,0.7283 14.1811,-3.46285 0.1649,-0.7283 z"
           id="path2-5-0-5-4-7-3"
           sodipodi:nodetypes="ccccc" /><path
           style="fill:#3c3d46;fill-opacity:1;stroke-width:3.30707;stroke-linecap:round;paint-order:stroke fill markers"
           d="m 1859.5426,304.63784 -0.1649,0.7283 7.7502,17.14935 0.1649,-0.7283 z"
           id="path2-5-2-1-8-4-7-8"
           sodipodi:nodetypes="ccccc" /><path
           style="fill:#4c4f5a;fill-opacity:1;stroke-width:3.30707;stroke-linecap:round;paint-order:stroke fill markers"
           d="m 1859.5426,304.63784 7.7502,17.14935 14.1811,-3.46285 -9.509,-15.83017 z"
           id="path2-9-7-4-8-5" /><path
           style="fill:#26335e;fill-opacity:1;stroke-width:3.30707;stroke-linecap:round;paint-order:stroke fill markers"
           d="m 1863.7974,312.25727 4.0008,8.67331 12.6913,-3.03485 -4.7327,-7.68795 z"
           id="path2-8-54-2-6-3-3"
           sodipodi:nodetypes="ccccc" /><path
           style="fill:#26335e;fill-opacity:1;stroke-width:3.30707;stroke-linecap:round;paint-order:stroke fill markers"
           d="m 1860.6341,305.17084 2.9404,6.61054 11.9082,-2.19661 -3.8579,-6.39506 z"
           id="path2-8-6-7-45-9-7-9"
           sodipodi:nodetypes="ccccc" /><path
           style="fill:#283a75;fill-opacity:1;stroke-width:3.30707;stroke-linecap:round;paint-order:stroke fill markers"
           d="m 1860.6341,305.17084 10.9907,-1.98113 1.2005,1.99005 -11.264,2.07562 z"
           id="path65-5-3-2-9-3" /><path
           style="fill:#283a75;fill-opacity:1;stroke-width:3.30707;stroke-linecap:round;paint-order:stroke fill markers"
           d="m 1862.1043,308.47611 11.4495,-2.08887 1.0435,1.7299 -11.568,2.43843 z"
           id="path65-1-6-7-2-1-9"
           sodipodi:nodetypes="ccccc" /><path
           style="fill:#283a75;fill-opacity:1;stroke-width:3.30707;stroke-linecap:round;paint-order:stroke fill markers"
           d="m 1863.7974,312.25727 11.9594,-2.04949 1.5586,2.53182 -12.1707,2.43847 z"
           id="path65-4-5-7-6-0-1"
           sodipodi:nodetypes="ccccc" /><path
           style="fill:#283a75;fill-opacity:1;stroke-width:3.30707;stroke-linecap:round;paint-order:stroke fill markers"
           d="m 1865.9417,316.90599 12.334,-2.60636 1.2609,2.05277 -12.5986,2.71326 z"
           id="path65-1-7-6-1-0-3-8"
           sodipodi:nodetypes="ccccc" /></g><g
         id="g68-7-2-36-9-2-7"
         transform="matrix(0.9670556,0,0,0.9670556,-67.376784,16.651309)"
         style="stroke-width:0.854939"><path
           style="fill:#444650;fill-opacity:1;stroke-width:3.41974;stroke-linecap:round;paint-order:stroke fill markers"
           d="m 1867.2928,321.78719 -0.1649,0.7283 14.1811,-3.46285 0.1649,-0.7283 z"
           id="path2-5-1-8-0-0-0-4"
           sodipodi:nodetypes="ccccc" /><path
           style="fill:#3c3d46;fill-opacity:1;stroke-width:3.41974;stroke-linecap:round;paint-order:stroke fill markers"
           d="m 1859.5426,304.63784 -0.1649,0.7283 7.7502,17.14935 0.1649,-0.7283 z"
           id="path2-5-2-3-31-5-0-5-3"
           sodipodi:nodetypes="ccccc" /><path
           style="fill:#4c4f5a;fill-opacity:1;stroke-width:3.41974;stroke-linecap:round;paint-order:stroke fill markers"
           d="m 1859.5426,304.63784 7.7502,17.14935 14.1811,-3.46285 -9.509,-15.83017 z"
           id="path2-0-0-6-2-6-1" /><path
           style="fill:#26335e;fill-opacity:1;stroke-width:3.41974;stroke-linecap:round;paint-order:stroke fill markers"
           d="m 1863.7974,312.25727 4.0008,8.67331 12.6913,-3.03485 -4.7327,-7.68795 z"
           id="path2-8-1-7-08-5-2-6"
           sodipodi:nodetypes="ccccc" /><path
           style="fill:#26335e;fill-opacity:1;stroke-width:3.41974;stroke-linecap:round;paint-order:stroke fill markers"
           d="m 1860.6341,305.17084 2.9404,6.61054 11.9082,-2.19661 -3.8579,-6.39506 z"
           id="path2-8-6-1-0-95-7-2-6"
           sodipodi:nodetypes="ccccc" /><path
           style="fill:#283a75;fill-opacity:1;stroke-width:3.41974;stroke-linecap:round;paint-order:stroke fill markers"
           d="m 1860.6341,305.17084 10.9907,-1.98113 1.2005,1.99005 -11.264,2.07562 z"
           id="path65-2-9-11-7-1-7" /><path
           style="fill:#283a75;fill-opacity:1;stroke-width:3.41974;stroke-linecap:round;paint-order:stroke fill markers"
           d="m 1862.1043,308.47611 11.4495,-2.08887 1.0435,1.7299 -11.568,2.43843 z"
           id="path65-1-2-9-32-9-3-6"
           sodipodi:nodetypes="ccccc" /><path
           style="fill:#283a75;fill-opacity:1;stroke-width:3.41974;stroke-linecap:round;paint-order:stroke fill markers"
           d="m 1863.7974,312.25727 11.9594,-2.04949 1.5586,2.53182 -12.1707,2.43847 z"
           id="path65-4-8-2-0-3-0-6"
           sodipodi:nodetypes="ccccc" /><path
           style="fill:#283a75;fill-opacity:1;stroke-width:3.41974;stroke-linecap:round;paint-order:stroke fill markers"
           d="m 1865.9417,316.90599 12.334,-2.60636 1.2609,2.05277 -12.5986,2.71326 z"
           id="path65-1-7-1-6-7-8-1-4"
           sodipodi:nodetypes="ccccc" /></g><path
         style="fill:#4a3923;fill-opacity:1;stroke-width:3.30707;stroke-linecap:round;paint-order:stroke fill markers"
         d="m 1712.9955,315.02627 7.9229,20.94073 -17.5616,-9.53375 z"
         id="path66-9-5-5-0-0"
         sodipodi:nodetypes="cccc" /></g></g></svg>
